<svg width="117" height="20" viewBox="0 0 117 20" fill="none" xmlns="http://www.w3.org/2000/svg">
<path d="M115.527 5.89649C115.527 5.45286 115.213 5.15711 114.695 5.15711L113.678 5.1756L113.697 7.43069H114.251V6.65434H114.584L115.065 7.43069H115.712L115.139 6.56192C115.257 6.49613 115.356 6.39961 115.424 6.28251C115.492 6.16541 115.528 6.03205 115.527 5.89649ZM114.584 6.19224H114.233V5.61922H114.64C114.713 5.6112 114.786 5.63169 114.845 5.67644C114.903 5.72119 114.942 5.78675 114.954 5.85952V5.87801C114.952 5.9237 114.941 5.96858 114.922 6.00977C114.902 6.05096 114.873 6.08754 114.839 6.11714C114.804 6.14675 114.763 6.16873 114.719 6.18166C114.675 6.1946 114.629 6.1982 114.584 6.19224V6.19224ZM32.5878 16.3216C31.6451 16.3216 30.9981 15.5823 30.9981 14.4917V9.51941H34.8798V6.00739H31.0074L30.9704 1.97782H26.6821L26.719 15.3974C26.719 18.1146 28.5305 19.963 31.1922 19.963C32.597 19.963 33.9279 19.7597 34.9815 19.2791V15.8595C34.2333 16.2067 33.4115 16.3654 32.5878 16.3216V16.3216ZM42.8281 5.78559C38.8355 5.78559 35.7671 8.89094 35.7671 13.0129C35.7671 17.098 38.8355 19.9445 43.0684 19.9445C45.4529 19.9445 47.6895 19.0943 49.0573 17.3383L45.7671 15.841C45.1017 16.451 44.085 16.6913 43.1793 16.6913C41.7005 16.6913 40.2218 15.9335 40.0185 14.3808H49.8336C49.9811 13.826 50.0557 13.2543 50.0554 12.6802C50.0554 8.44732 46.9686 5.78559 42.8373 5.78559H42.8281ZM40.0185 11.6636C40.1479 9.81516 41.4787 8.96488 42.939 8.96488C44.5841 8.96488 45.8225 9.88909 45.8225 11.4787V11.6636H40.0185ZM22.6063 16.3216C21.6636 16.3216 21.0166 15.5823 21.0166 14.4917V9.51941H24.8983V6.00739H21.0259L20.9889 1.97782H16.7006L16.7375 15.3974C16.7375 18.1146 18.549 19.963 21.2107 19.963C22.6155 19.963 23.9464 19.7597 25 19.2791V15.8595C24.2523 16.2084 23.4301 16.3671 22.6063 16.3216V16.3216ZM7.54159 5.78559C3.86322 5.78559 0 8.20703 0 13.0869C0 17.1534 2.73567 20 6.19224 20C8.17005 20 9.66728 19.2052 10.6469 17.8004L10.7763 19.7597H14.9261V13.2532C14.9261 8.29945 11.2754 5.78559 7.54159 5.78559V5.78559ZM7.54159 16.2477C5.67468 16.2477 4.32532 14.8614 4.32532 12.902C4.32532 10.9427 5.65619 9.55638 7.54159 9.55638C9.27911 9.55638 10.7209 11.0721 10.7209 12.902C10.7209 14.732 9.27911 16.2477 7.54159 16.2477V16.2477ZM114.492 4.14048C113.142 4.15896 112.274 5.02773 112.292 6.32163C112.311 7.61553 113.198 8.46581 114.547 8.44732C115.86 8.42884 116.747 7.56008 116.728 6.24769C116.71 4.93531 115.823 4.12199 114.492 4.14048V4.14048ZM114.547 8.07764C113.494 8.09612 112.773 7.39372 112.773 6.32163C112.773 5.24954 113.457 4.52865 114.51 4.51016C115.564 4.49168 116.266 5.19408 116.285 6.28466C116.285 7.33826 115.582 8.05915 114.556 8.07764H114.547ZM93.5305 6.02588L90.536 14.7135L87.5046 6.02588H82.8466L88.4288 19.7412H92.6063L98.1885 6.02588H93.5305ZM104.64 5.78559C100.647 5.78559 97.5785 8.89094 97.5785 13.0129C97.5785 17.098 100.647 19.9445 104.88 19.9445C107.264 19.9445 109.501 19.0943 110.869 17.3383L107.579 15.841C106.913 16.451 105.896 16.6913 104.991 16.6913C103.512 16.6913 102.033 15.9335 101.83 14.3808H111.645C111.793 13.826 111.867 13.2543 111.867 12.6802C111.867 8.44732 108.78 5.78559 104.64 5.78559ZM107.634 11.6636H101.83C101.959 9.81516 103.29 8.96488 104.75 8.96488C106.396 8.96488 107.634 9.88909 107.634 11.4787V11.6636ZM79.5379 0C78.0222 0 76.8761 1.01664 76.8761 2.43993C76.8761 3.86322 78.0222 4.91682 79.5379 4.91682C81.0536 4.91682 82.1996 3.8817 82.1996 2.43993C82.1996 0.998154 81.0721 0 79.5379 0V0ZM60.0739 5.7671C59.2073 5.7531 58.3517 5.96364 57.5905 6.37824C56.8294 6.79284 56.1884 7.39739 55.7301 8.13309L55.5822 6.02588H51.4418V19.7412H55.7301V12.5508C55.8225 10.8318 57.2089 9.51941 58.7246 9.51941C60.4251 9.51941 61.2015 10.7948 61.2015 12.403V19.7227H65.4713V11.7375C65.4713 8.26248 63.3549 5.7671 60.0739 5.7671V5.7671ZM73.1608 16.3216C72.2181 16.3216 71.5712 15.5823 71.5712 14.4917V9.51941H75.4529V6.00739H71.5712L71.5342 1.97782H67.2458L67.2828 15.3974C67.2828 18.1146 69.0943 19.963 71.756 19.963C73.1608 19.963 74.4917 19.7597 75.5453 19.2791V15.8595C74.8004 16.2069 73.9815 16.3656 73.1608 16.3216V16.3216ZM77.3752 6.02588V19.7412H81.7005V6.02588C81.0593 6.45081 80.3071 6.67743 79.5379 6.67743C78.7686 6.67743 78.0164 6.45081 77.3752 6.02588V6.02588Z" fill="white"/>
</svg>
