<svg width="102" height="34" viewBox="0 0 102 34" fill="none" xmlns="http://www.w3.org/2000/svg">
<path d="M0 13.154C0.108764 12.6034 0.200535 12.0459 0.326293 11.4987C1.37655 6.93741 5.31586 3.2904 9.95875 2.58343C12.5725 2.18576 15.1013 2.43728 17.4907 3.63369C19.0542 4.41543 19.0508 4.42563 19.0508 6.14547C19.0508 6.80825 19.0508 7.47443 19.0508 8.13722C19.0508 8.26638 19.0372 8.39553 19.027 8.60627C18.2011 7.71576 17.3139 7.04618 16.2535 6.6587C13.548 5.67302 10.8085 5.39092 8.16413 6.78446C5.31247 8.28677 3.90872 10.7476 3.81695 13.9493C3.71839 17.4094 5.84609 20.7199 9.21439 21.7532C12.756 22.8408 16.0292 22.1984 18.8231 19.6459C18.8706 19.6017 18.9216 19.5575 19.0236 19.4589C19.0338 19.6493 19.044 19.775 19.044 19.9008C19.044 20.917 19.0236 21.9333 19.0542 22.9496C19.0644 23.3439 18.9182 23.5614 18.5987 23.7619C16.386 25.1623 13.9762 25.7707 11.3591 25.6755C6.67542 25.5021 2.30105 22.4024 0.723964 18.0314C0.414665 17.1749 0.292305 16.2504 0.0781745 15.3565C0.0645789 15.2783 0.03059 15.1933 0 15.1083C0 14.4558 0 13.8066 0 13.154Z" fill="#E92033"/>
<path d="M86.8758 33.4998C88.3509 30.2572 89.826 27.0181 91.2875 23.7722C91.3589 23.6158 91.3453 23.3677 91.2706 23.2113C89.2618 19.0409 87.2361 14.8739 85.2171 10.7068C85.0098 10.282 84.8093 9.8571 84.5815 9.38465H88.3203C89.928 12.7292 91.5459 16.0941 93.2011 19.5371C93.2963 19.3468 93.3643 19.221 93.422 19.0953C94.8394 15.9785 96.2635 12.8617 97.6673 9.73814C97.8066 9.42544 97.98 9.33707 98.3029 9.34386C99.3191 9.36426 100.335 9.35066 101.426 9.35066C97.7556 17.4366 94.112 25.4682 90.465 33.4998H86.8758Z" fill="#E92033"/>
<path d="M71.4036 18.0009C71.2235 19.5848 72.4369 21.4406 74.1126 22.185C76.2097 23.1129 78.9118 22.7798 80.7234 20.4209C81.5221 20.9648 82.3209 21.512 83.1434 22.0728C82.4024 23.1706 81.4881 24.017 80.3733 24.6525C77.3007 26.3996 73.1167 25.9611 70.5811 23.5989C69.1094 22.2257 68.3412 20.4787 68.1543 18.5006C67.964 16.4918 68.2529 14.5476 69.2623 12.7632C70.6287 10.35 72.736 9.10603 75.4925 8.93948C77.8275 8.79673 79.9111 9.39493 81.5663 11.125C82.9157 12.5355 83.5479 14.2689 83.7586 16.1757C83.8062 16.6074 83.8028 17.0424 83.8402 17.4741C83.8742 17.8854 83.728 18.0213 83.2896 18.0179C79.51 18.0009 75.7304 18.0077 71.9509 18.0077H71.4036V18.0009ZM80.5025 15.2818C80.3257 13.6605 78.5107 11.509 75.744 11.6688C73.6707 11.7911 71.5804 13.5178 71.492 15.2818H80.5025Z" fill="#E92033"/>
<path d="M30.2026 8.91895C34.9849 8.91895 38.7373 12.6033 38.7508 17.3142C38.7678 22.0013 34.9985 25.6925 30.1992 25.6925C25.4102 25.6925 21.6272 21.9877 21.634 17.3108C21.6442 12.6305 25.4306 8.91895 30.2026 8.92234V8.91895ZM30.2026 22.5485C33.1597 22.5485 35.352 20.3256 35.3588 17.3142C35.3656 14.3164 33.1597 12.0595 30.223 12.0595C27.2524 12.0595 25.0295 14.3062 25.0329 17.3142C25.0329 20.3018 27.2524 22.5485 30.2026 22.5485Z" fill="#E92033"/>
<path d="M49.7223 25.6927C44.9027 25.6859 41.1843 21.9879 41.2081 17.1989C41.2319 12.5492 45.144 8.85124 49.8685 8.90562C54.4094 8.96 58.3827 12.5968 58.3181 17.549C58.257 22.0389 54.4366 25.6995 49.7223 25.6927ZM49.7733 12.0632C46.8299 12.0632 44.607 14.2861 44.6036 17.2397C44.6002 20.3055 46.7585 22.5488 49.7155 22.5522C52.7032 22.5556 54.9124 20.3327 54.9158 17.3179C54.9226 14.3269 52.7066 12.0666 49.7733 12.0632Z" fill="#E92033"/>
<path d="M61.71 0.5H65.0613V25.2609H61.71V0.5Z" fill="#E92033"/>
</svg>
