<svg width="112" height="35" viewBox="0 0 112 35" fill="none" xmlns="http://www.w3.org/2000/svg">
<path d="M30.3878 18.374L31.2459 29.3278L16.052 32.0536L14.7396 21.0998L16.9102 20.797C17.2635 20.9484 17.5159 20.9989 17.9197 21.0998C18.5759 21.2513 19.3331 21.4532 20.4436 20.8475C20.696 20.696 21.2513 20.2417 21.4532 19.9389L30.3878 18.374ZM6.9155 31.3974C6.66311 30.9936 6.20881 30.5393 5.50211 29.984C4.49255 29.1763 4.8459 27.763 5.45163 26.9048C6.20881 25.441 10.1966 23.5228 9.99466 21.1503C9.89371 20.2922 9.79275 19.1817 8.9851 18.374C8.95576 18.5749 8.95576 18.7789 8.9851 18.9798C8.9851 18.9798 8.63175 18.5759 8.48032 17.9702C8.32889 17.7683 8.17745 17.6673 8.02602 17.3645C7.92506 17.7178 7.92506 18.0712 7.92506 18.0712C7.92506 18.0712 7.67267 17.4149 7.62219 16.9102C7.47076 17.1626 7.42028 17.6169 7.42028 17.6169C7.42028 17.6169 7.06693 16.6073 7.16789 16.052C7.01646 15.5977 6.51167 14.6386 6.66311 12.5186C7.52124 13.1243 9.4394 12.9729 10.1966 11.8624C10.449 11.509 10.6004 10.4994 10.0956 8.5308C9.74227 7.26885 8.88415 5.40116 8.5308 4.69446L8.48032 4.74494C8.68223 5.3002 9.03558 6.51168 9.18701 7.11741C9.59084 8.88415 9.74227 9.48988 9.54036 10.2975C9.38893 11.0042 8.9851 11.4585 7.92506 11.9633C6.9155 12.4681 5.50211 11.2061 5.45163 11.1557C4.44207 10.348 3.6849 9.03558 3.58395 8.42984C3.48299 7.72315 3.98777 7.31932 4.24016 6.76407C3.88681 6.86502 3.48299 7.06693 3.48299 7.06693C3.48299 7.06693 3.93729 6.56215 4.54303 6.15833C4.79542 6.00689 4.94685 5.90594 5.19924 5.70403H4.54303C4.54303 5.70403 5.14877 5.35068 5.80498 5.14877H4.89638L7.31932 4.08873C8.0765 3.78586 8.78319 3.88681 9.18701 4.44207C9.74227 5.19924 10.2975 5.60307 11.4585 5.90594C12.1652 5.60307 12.4176 5.40116 13.3262 5.14877C14.1339 4.24016 14.7901 4.1392 14.7901 4.1392C14.7901 4.1392 14.3358 4.54303 14.2853 4.99733C14.7396 4.64399 15.2444 4.34112 15.2444 4.34112C15.2444 4.34112 15.0425 4.59351 14.891 4.94685L14.9415 4.99733C15.4968 4.69446 16.1025 4.44207 16.1025 4.44207C16.1025 4.44207 15.9006 4.64399 15.6987 4.94685C16.1025 4.94685 16.9102 4.94685 17.213 4.99733C19.0807 5.04781 19.4845 3.02869 20.1912 2.72582C21.0998 2.42295 21.5037 2.22104 23.018 3.73538C24.3304 5.04781 25.34 7.31932 24.8352 7.82411C24.4314 8.22793 23.5733 7.67267 22.6142 6.51167C22.1094 5.90594 21.7561 5.14877 21.5541 4.24016C21.4532 3.48299 20.8979 3.02869 20.8979 3.02869C20.8979 3.02869 21.2513 3.78586 21.2513 4.44207C21.2513 4.79542 21.3018 6.10785 21.857 6.86502C21.8065 6.96598 21.7561 7.42028 21.7056 7.47076C21.0494 6.66311 19.5855 6.10785 19.3836 5.90594C20.1912 6.56215 22.0085 8.02602 22.7151 9.43941C23.3714 10.8023 22.9675 12.0138 23.3209 12.3167C23.4218 12.4176 24.7343 14.0329 24.9867 14.891C25.441 16.3549 25.0371 17.8692 24.4314 18.7779L22.8161 19.0302C22.5637 18.9798 22.4123 18.9293 22.2104 18.8283C22.3113 18.6264 22.5637 18.1216 22.5637 18.0207L22.4628 17.8692C21.958 18.5759 21.0998 19.2826 20.3932 19.6865C19.4845 20.1912 18.4245 20.1408 17.7178 19.8884C15.7492 19.2826 13.8815 17.9702 13.4777 17.6169C13.4777 17.6169 13.4777 17.8692 13.5281 17.9702C14.0329 18.5255 15.1434 19.535 16.2539 20.2417L13.932 20.4941L15.0425 29.0754C14.5377 29.1259 14.4872 29.1763 13.932 29.2773C13.4777 27.6115 12.569 26.5515 11.5595 25.8953C10.7014 25.34 9.48988 25.1886 8.32889 25.441L8.27841 25.5419C9.08606 25.441 10.0451 25.5924 11.0042 26.1981C11.9633 26.8039 12.7205 28.3687 13.0233 29.2773C13.3767 30.4888 13.6291 31.7507 12.67 33.1136C11.9633 34.0727 9.94419 34.628 8.32889 33.467C8.78319 34.1737 9.33845 34.7289 10.1461 34.8299C11.3071 34.9813 12.4176 34.7794 13.2253 34.0222C13.8815 33.366 14.2348 31.9526 14.1339 30.4383L15.1939 30.2869L15.5473 32.9622L32.7603 30.8926L31.2459 17.1626L30.3878 17.314L28.6716 0L0 3.33155L3.53347 31.9022L6.9155 31.3974Z" fill="white"/>
<path d="M20.547 16.3802C21.304 16.9352 21.96 17.2802 22.617 17.2382C23.021 17.1882 23.425 16.5312 23.677 15.9262C23.879 15.5222 23.879 15.0682 23.577 14.9262C23.427 14.8762 22.82 14.8762 22.377 14.9262C21.519 15.0262 20.661 15.3302 20.459 15.4812C20.156 15.6832 20.309 16.1882 20.559 16.3812L20.547 16.3802ZM20.759 10.4652V10.5152L20.809 10.6152C21.011 11.0192 21.213 11.4232 21.617 11.6152C21.717 11.6152 21.819 11.5652 21.92 11.5652C22.1597 11.5581 22.3989 11.5922 22.627 11.6662V11.3632C22.577 10.8582 22.727 9.95022 21.727 9.44522C21.323 9.24322 20.827 9.34522 20.627 9.54522H20.727C20.979 9.64522 20.827 9.74722 20.777 9.84822C20.727 10.0502 20.677 10.1002 20.777 10.4542" fill="white"/>
<path d="M16.2152 10.5751C16.4672 10.3731 15.0552 10.0701 13.9432 10.7771C13.1352 11.3321 13.1352 12.4931 13.8932 13.1491C13.9932 13.1991 14.0432 13.2491 14.0952 13.2991C14.2972 13.1991 14.6002 13.0971 14.8522 12.9961C15.3572 12.8461 15.7522 12.7441 16.1142 12.6931C16.2642 12.4911 16.4672 12.1881 16.4172 11.6331C16.3672 10.8761 15.7612 11.0271 16.2152 10.5731V10.5751ZM27.3212 24.7601L24.4442 22.8421L22.0212 26.8801L19.1942 26.0221L16.7212 29.8081L16.8212 31.0081L30.3492 28.5351L29.5412 20.1051L27.3212 24.7601Z" fill="white"/>
<path d="M95.3098 21.3022C93.0001 21.3022 91.7565 19.9697 91.7565 17.3936C91.7565 14.8175 92.9113 13.485 95.3098 13.485C97.6194 13.485 98.7742 14.8175 98.7742 17.3936C98.7742 19.9697 97.6194 21.3022 95.3098 21.3022ZM95.3098 11.7084C91.5788 11.7084 89.6245 13.5738 89.6245 17.3936C89.8022 21.2134 91.7565 23.0789 95.3098 23.0789C99.0407 23.0789 100.906 21.2134 100.906 17.3936C100.995 13.5738 99.1295 11.7084 95.3098 11.7084Z" fill="white"/>
<path d="M108.624 13.485C109.779 13.485 110.845 13.6627 111.822 14.1068V12.2414C110.845 11.886 109.779 11.7084 108.535 11.7084C104.449 11.7084 102.406 13.5738 102.406 17.3048C102.406 21.2134 104.449 23.1677 108.446 23.1677C109.868 23.1677 110.934 22.99 111.911 22.5459V16.5941H108.446L107.736 18.4596H109.779V21.1246C109.335 21.2134 108.89 21.3022 108.446 21.3022C105.87 21.3022 104.538 19.9698 104.538 17.216C104.538 14.7287 105.959 13.485 108.624 13.485Z" fill="white"/>
<path d="M82.6229 21.1725H80.1356V13.533H82.6229C84.9326 13.533 86.1762 14.6878 86.1762 17.0863C86.0874 19.8401 84.9326 21.1725 82.6229 21.1725ZM82.8894 11.7563H78.0037V23.038H82.8894C86.4427 23.038 88.2193 21.0837 88.2193 17.0863C88.2193 13.533 86.4427 11.7563 82.8894 11.7563Z" fill="white"/>
<path d="M40.6053 21.1858H38.1181V13.5463H40.6053C43.0038 13.5463 44.1586 14.7011 44.1586 17.0996C44.1586 19.8534 42.915 21.1858 40.6053 21.1858ZM40.8718 11.7697H35.9861V23.0513H40.8718C44.4251 23.0513 46.2018 21.097 46.2018 17.0996C46.2018 13.5463 44.4251 11.7697 40.8718 11.7697Z" fill="white"/>
<path d="M72.9401 19.9289L74.3614 23.038H76.5822L71.6965 11.7563H69.3868L64.5899 23.038H66.7219L70.5417 13.8883L72.3183 18.1523H70.0087L69.298 19.9289H72.9401ZM54.5519 19.9289L55.9732 23.038H58.2828L53.3083 11.7563H51.0875L46.2905 23.038H48.4225L52.1534 13.8883L54.0189 18.1523H51.6204L50.9098 19.9289H54.5519ZM57.0392 13.533H60.326V23.038H62.458V13.533H65.6559V11.7563H57.0392V13.533Z" fill="white"/>
</svg>
