<svg width="134" height="22" viewBox="0 0 134 22" fill="none" xmlns="http://www.w3.org/2000/svg">
<path d="M44.7564 11.1167H49.1799V9.77622H44.7564V6.88336H51.3536V5.54884H43.4204V15.7596H51.5862V14.4417H44.7564V11.1179V11.1167ZM79.6583 11.6905C79.6583 13.5131 78.5758 14.7215 76.9687 14.7215C75.4089 14.7215 74.4334 13.5 74.4334 11.6905V5.57622H73.1085V11.7607C73.1085 14.5441 74.9107 16.0607 76.9588 16.0607C79.9868 16.0607 80.9711 13.7548 80.9711 11.7607V5.57741H79.6616V11.6917H79.6583V11.6905ZM89.6495 5.55003H88.3377V15.7619H89.6495V5.55003ZM105.335 13.5488L98.8426 5.54765H97.5419V15.7584H98.8536V7.69288L105.363 15.7584H106.645V5.54765H105.335V13.5476V13.5488ZM115.924 5.55003H114.611V15.7619H115.924V5.55003ZM128.697 10.2179L132.509 5.53812H130.89L127.863 9.20717L124.922 5.53812H123.207L126.882 10.2215L122.285 15.7548H123.964L127.735 11.2095L131.328 15.7548H133.15L128.697 10.2191V10.2179ZM65.0827 10.6465C65.0827 12.0893 64.6649 13.0274 63.901 13.8286L63.1889 12.9119L61.6645 12.9072L62.9145 14.506C62.6102 14.6703 62.058 14.8012 61.6314 14.8048C59.6726 14.8215 58.1118 13.056 58.1118 10.6595V10.6203C58.1118 8.17979 59.5734 6.4536 61.5421 6.44288C63.5141 6.42384 65.0827 8.18217 65.0827 10.6048V10.6465ZM61.5719 5.13455C58.8426 5.15479 56.7438 7.45717 56.7438 10.6691V10.7072C56.7438 13.9 58.8966 16.1476 61.6049 16.1262C62.3027 16.1191 63.1228 15.9167 63.7401 15.5619L64.4863 16.5215H66.013L64.7068 14.8536C65.7771 13.9453 66.4517 12.4476 66.4517 10.5953V10.5536C66.4484 7.37979 64.289 5.11312 61.5719 5.13455Z" fill="white"/>
<path d="M14.8975 0L11.918 1.125V18.0036L9.93166 17.256V1.875L3.97266 4.125V15.0119L1.98633 14.2619V4.86905L0 5.61786V15.7845L5.95899 18.0321V5.64405L7.94533 4.89643V18.7798L13.9043 21.0286V2.64762L14.8975 2.275L15.8907 2.64881V21.0286L21.8507 18.7798V4.89643L23.8338 5.64405V18.0321L29.7928 15.7845V5.61786L27.8064 4.86786V14.2607L25.8223 15.0107V4.125L19.8622 1.875V17.256L17.8759 18.0036V1.125L14.8997 0H14.8975ZM35.2899 15.0726C36.2853 15.0726 37.0789 14.1833 37.0789 13.1298V13.1179C37.0795 12.8639 37.0336 12.6123 36.9439 12.3775C36.8543 12.1428 36.7225 11.9294 36.5563 11.7498C36.3901 11.5702 36.1926 11.4278 35.9753 11.3308C35.758 11.2337 35.5251 11.1841 35.2899 11.1845C34.2901 11.1845 33.4998 12.0738 33.4998 13.1298V13.1393C33.4992 13.3934 33.5451 13.645 33.6349 13.8799C33.7246 14.1147 33.8564 14.3281 34.0228 14.5078C34.1891 14.6874 34.3867 14.8298 34.6042 14.9267C34.8216 15.0237 35.0547 15.0732 35.2899 15.0726ZM35.2899 14.8631C34.386 14.8631 33.7059 14.0869 33.7059 13.1393V13.1298C33.7036 12.9033 33.7428 12.6787 33.8213 12.4687C33.8998 12.2588 34.0161 12.0677 34.1634 11.9065C34.3106 11.7454 34.486 11.6173 34.6794 11.5297C34.8727 11.4422 35.0802 11.3969 35.2899 11.3964C36.1938 11.3964 36.8728 12.1726 36.8728 13.1167V13.1298C36.8728 14.0738 36.1839 14.8631 35.2899 14.8631ZM34.5503 14.0964H35.0022V13.4619H35.2921L35.6922 14.0964H36.2379L35.7672 13.375C35.8902 13.336 35.9976 13.2536 36.0721 13.1409C36.1466 13.0283 36.184 12.8919 36.1783 12.7536C36.1783 12.2988 35.8587 12.0869 35.4266 12.0869H34.5525V14.0964H34.5503ZM35.0022 13.0655V12.5083H35.3935C35.5875 12.5083 35.7132 12.6083 35.7132 12.7857C35.7132 12.9524 35.5996 13.0655 35.3935 13.0655H35.0033H35.0022Z" fill="#ED1C24"/>
</svg>
