<svg width="154" height="24" viewBox="0 0 154 24" fill="none" xmlns="http://www.w3.org/2000/svg">
<path d="M13.0261 16.4152L11.3577 10.9015L7.70014 14.6752L6.28844 9.91621L15.8922 0C4.70564 0 0.791401 5.1992 1.86087 9.53888L3.97841 17.6941C5.09065 21.5305 1.09085 23.5222 0 23.9834C2.11753 24.0463 3.76451 23.9415 5.24037 23.4802C8.06377 22.7046 9.92465 20.7968 13.0261 16.4152Z" fill="#FF5300"/>
<g opacity="0.8">
<path opacity="0.8" d="M23.6352 6.3106C22.5229 2.4741 26.5227 0.482469 27.6136 0.0212472C25.496 -0.0416466 23.8491 0.0631758 22.3732 0.524399C19.5285 1.30008 17.6676 3.20786 14.5662 7.58947L16.2345 13.1031L19.892 9.32948L21.3037 14.0885L11.7 23.9837C22.8865 23.9837 26.8008 18.7845 25.7314 14.4448L23.6352 6.3106Z" fill="#FF5300"/>
</g>
<path d="M37.2391 7.33756V12.0546H44.1692V13.7108H37.2391V19.1825H35.2712V5.6604H45.0248V7.33756H37.2391Z" fill="white"/>
<path d="M46.9065 6.62463C46.9065 5.95377 47.4626 5.40869 48.1899 5.40869C48.9171 5.40869 49.4732 5.9328 49.4732 6.5827C49.4732 7.27453 48.9385 7.81958 48.1899 7.81958C47.4626 7.81958 46.9065 7.2955 46.9065 6.62463ZM47.2273 8.95173H49.131V19.2034H47.2273V8.95173Z" fill="white"/>
<path d="M58.2645 8.84717V10.6501C58.1149 10.6291 57.9651 10.6291 57.8368 10.6291C55.8048 10.6291 54.5429 11.8451 54.5429 14.0883V19.2037H52.6392V8.95201H54.4573V10.6711C55.1417 9.4551 56.4251 8.84717 58.2645 8.84717Z" fill="white"/>
<path d="M69.558 14.6963H61.0665C61.3018 16.4992 62.7776 17.6942 64.8523 17.6942C66.0715 17.6942 67.0982 17.2959 67.8682 16.4573L68.9164 17.6523C67.9752 18.7424 66.5207 19.3084 64.7882 19.3084C61.4087 19.3084 59.1628 17.1281 59.1628 14.0673C59.1628 11.0275 61.3874 8.84717 64.4032 8.84717C67.4191 8.84717 69.5794 10.9856 69.5794 14.1302C69.6008 14.277 69.5794 14.5076 69.558 14.6963ZM61.0665 13.3546H67.7827C67.5902 11.6355 66.264 10.4195 64.4246 10.4195C62.6065 10.4195 61.2803 11.6145 61.0665 13.3546Z" fill="white"/>
<path d="M84.6373 5.6604V19.2035H81.4509V13.6478H75.1835V19.2035H71.9751V5.6604H75.1835V11.0064H81.4509V5.6604H84.6373Z" fill="white"/>
<path d="M98.1552 8.78394L93.3644 19.8322C92.3376 22.348 90.8826 23.1027 88.9576 23.1027C87.8666 23.1027 86.6904 22.7463 86.0059 22.1593L87.1395 20.0209C87.6103 20.4192 88.2731 20.6708 88.8724 20.6708C89.7281 20.6708 90.1981 20.2935 90.6046 19.371L90.6472 19.2662L86.0492 8.78394H89.2356L92.1874 15.849L95.1817 8.78394H98.1552Z" fill="white"/>
<path d="M109.834 4.84302V19.2037H106.882V18.0088C106.112 18.9102 104.979 19.3714 103.567 19.3714C100.572 19.3714 98.2622 17.275 98.2622 14.0045C98.2622 10.734 100.572 8.63761 103.567 8.63761C104.872 8.63761 105.984 9.03592 106.754 9.89544V4.84302H109.834ZM106.818 13.9835C106.818 12.1806 105.642 11.0905 104.123 11.0905C102.583 11.0905 101.407 12.1806 101.407 13.9835C101.407 15.7865 102.583 16.8767 104.123 16.8767C105.62 16.8767 106.818 15.7865 106.818 13.9835Z" fill="white"/>
<path d="M119.181 8.63721V11.4255C118.925 11.4045 118.732 11.3836 118.497 11.3836C116.807 11.3836 115.673 12.2851 115.673 14.2767V19.1824H112.593V8.78402H115.545V10.1677C116.273 9.16135 117.534 8.63721 119.181 8.63721Z" fill="white"/>
<path d="M130.239 13.2496V19.1826H127.352V17.8828C126.774 18.8262 125.684 19.3293 124.122 19.3293C121.641 19.3293 120.165 17.9666 120.165 16.1846C120.165 14.3398 121.491 13.061 124.72 13.061H127.159C127.159 11.7612 126.367 11.0064 124.72 11.0064C123.587 11.0064 122.432 11.3838 121.662 11.9708L120.55 9.85337C121.705 9.03575 123.437 8.59546 125.127 8.59546C128.378 8.63743 130.239 10.1049 130.239 13.2496ZM127.159 15.9121V14.8429H125.042C123.609 14.8429 123.138 15.367 123.138 16.0589C123.138 16.8136 123.78 17.3167 124.871 17.3167C125.918 17.3167 126.817 16.8555 127.159 15.9121Z" fill="white"/>
<path d="M143.8 13.2287V19.1826H140.72V13.7109C140.72 12.0337 139.928 11.258 138.559 11.258C137.083 11.258 136.014 12.1385 136.014 14.0672V19.2035H132.935V8.78418H135.886V10.0001C136.72 9.11962 137.961 8.61646 139.394 8.61646C141.896 8.63744 143.8 10.0631 143.8 13.2287Z" fill="white"/>
<path d="M153.318 18.7006C152.676 19.1408 151.757 19.3505 150.815 19.3505C148.313 19.3505 146.837 18.0926 146.837 15.6188V11.342H145.19V9.01494H146.837V6.47827H149.939V9.01494H152.591V11.342H149.939V15.5769C149.939 16.4574 150.431 16.9605 151.265 16.9605C151.714 16.9605 152.163 16.8347 152.505 16.5831L153.318 18.7006Z" fill="white"/>
</svg>
