<svg width="140" height="32" viewBox="0 0 140 32" fill="none" xmlns="http://www.w3.org/2000/svg">
<g clip-path="url(#clip0_2904_14995)">
<path d="M11.843 11.4209C11.843 12.7929 11.263 14.0059 10.313 14.9549C9.258 16.0099 7.728 16.2749 7.728 17.1709C7.728 18.3839 9.68 18.0149 11.553 19.8879C12.793 21.1279 13.557 22.7629 13.557 24.6619C13.557 28.4069 10.55 31.3879 6.779 31.3879C3.007 31.3869 0 28.4099 0 24.6629C0 22.7639 0.765 21.1289 2.005 19.8889C3.877 18.0169 5.829 18.3859 5.829 17.1729C5.829 16.2759 4.299 16.0119 3.244 14.9569C2.294 14.0069 1.714 12.7939 1.714 11.3699C1.714 8.62694 3.956 6.41094 6.699 6.41094C7.227 6.41094 7.702 6.49094 8.097 6.49094C8.81 6.49094 9.179 6.17394 9.179 5.67294C9.179 5.38294 9.047 5.01294 9.047 4.61794C9.047 3.72094 9.812 2.98194 10.735 2.98194C11.658 2.98194 12.397 3.74694 12.397 4.66994C12.397 5.64594 11.632 6.09494 11.052 6.30594C10.577 6.46394 10.207 6.67494 10.207 7.14994C10.207 8.04394 11.843 8.91494 11.843 11.4209ZM11.315 24.6639C11.315 22.0539 9.39 19.9429 6.779 19.9429C4.167 19.9429 2.242 22.0529 2.242 24.6639C2.242 27.2489 4.167 29.3859 6.779 29.3859C9.389 29.3859 11.315 27.2459 11.315 24.6639ZM9.76 11.3679C9.76 9.70694 8.415 8.33494 6.78 8.33494C5.144 8.33494 3.8 9.70694 3.8 11.3679C3.8 13.0299 5.144 14.4019 6.78 14.4019C8.415 14.4019 9.76 13.0299 9.76 11.3679ZM21.337 6.67294C22.181 6.67294 22.814 7.30594 22.814 8.09694C22.814 8.88794 22.207 9.52094 21.364 9.52094C20.493 9.52094 20.018 8.96794 19.148 8.96794C18.304 8.96794 17.644 9.57394 17.644 10.6029V18.9109C17.644 19.2082 17.5259 19.4934 17.3157 19.7036C17.1054 19.9138 16.8203 20.0319 16.523 20.0319C16.2257 20.0319 15.9406 19.9138 15.7303 19.7036C15.5201 19.4934 15.402 19.2082 15.402 18.9109V7.72794C15.4002 7.58069 15.4274 7.43452 15.4821 7.2978C15.5368 7.16108 15.6179 7.03648 15.7208 6.93115C15.8237 6.82582 15.9464 6.74182 16.0818 6.68396C16.2172 6.6261 16.3627 6.59551 16.51 6.59394C17.644 6.59394 17.433 7.67494 18.567 7.67494C19.649 7.67494 20.044 6.67294 21.337 6.67294ZM23.791 13.3199C23.791 9.33694 26.534 6.46194 30.306 6.46194C33.761 6.46194 36.504 8.99394 36.504 12.4499C36.504 13.2669 35.977 13.8209 35.212 13.8209H26.64C26.27 13.8209 26.138 13.9529 26.138 14.2429C26.138 14.9029 26.666 16.1159 27.458 16.9069C28.248 17.6979 29.33 18.1729 30.86 18.1729C31.994 18.1729 32.996 17.7509 33.761 17.1969C33.998 17.0129 34.262 16.9069 34.526 16.9069C35.08 16.9069 35.528 17.4079 35.528 17.9359C35.528 18.2519 35.423 18.5159 35.159 18.7529C34.051 19.6769 32.495 20.1779 30.807 20.1779C26.719 20.1779 23.791 17.2239 23.791 13.3199ZM33.128 9.52194C32.389 8.78294 31.44 8.41394 30.306 8.41394C29.172 8.41394 28.116 8.86294 27.352 9.62694C26.745 10.2339 26.323 11.0249 26.323 11.5529C26.323 11.8169 26.481 11.9229 26.824 11.9229H33.682C33.998 11.9229 34.157 11.8169 34.157 11.5529C34.157 10.9199 33.656 10.0489 33.128 9.52194ZM38.773 13.3199C38.773 9.33694 41.515 6.46194 45.287 6.46194C48.743 6.46194 51.486 8.99394 51.486 12.4499C51.486 13.2669 50.958 13.8209 50.193 13.8209H41.621C41.251 13.8209 41.12 13.9529 41.12 14.2429C41.12 14.9029 41.647 16.1159 42.439 16.9069C43.23 17.6979 44.311 18.1729 45.841 18.1729C46.975 18.1729 47.978 17.7509 48.742 17.1969C48.98 17.0129 49.244 16.9069 49.507 16.9069C50.061 16.9069 50.51 17.4079 50.51 17.9359C50.51 18.2519 50.404 18.5159 50.14 18.7529C49.033 19.6769 47.477 20.1779 45.788 20.1779C41.7 20.1779 38.773 17.2239 38.773 13.3199ZM48.109 9.52194C47.371 8.78294 46.421 8.41394 45.287 8.41394C44.153 8.41394 43.098 8.86294 42.333 9.62694C41.727 10.2339 41.304 11.0249 41.304 11.5529C41.304 11.8169 41.463 11.9229 41.806 11.9229H48.663C48.98 11.9229 49.138 11.8169 49.138 11.5529C49.138 10.9199 48.637 10.0489 48.109 9.52194ZM64.7 20.0459C64.5507 20.0471 64.4027 20.0186 64.2645 19.9621C64.1263 19.9055 64.0007 19.8221 63.8951 19.7165C63.7895 19.611 63.7059 19.4855 63.6492 19.3474C63.5926 19.2093 63.5639 19.0612 63.565 18.9119V11.7379C63.565 9.86494 62.088 8.44094 60.189 8.44094C58.264 8.44094 56.787 9.89094 56.787 11.7379V18.9119C56.787 19.2092 56.6689 19.4944 56.4587 19.7046C56.2484 19.9148 55.9633 20.0329 55.666 20.0329C55.3687 20.0329 55.0836 19.9148 54.8733 19.7046C54.6631 19.4944 54.545 19.2092 54.545 18.9119V7.70194C54.545 7.09494 55.046 6.59394 55.626 6.59394C56.734 6.59394 56.681 7.59694 57.262 7.59694C57.842 7.59694 58.633 6.46194 60.69 6.46194C63.565 6.46194 65.807 8.86194 65.807 11.7379V18.9119C65.8088 19.0591 65.7817 19.2052 65.727 19.3419C65.6724 19.4785 65.5913 19.6031 65.4885 19.7084C65.3857 19.8137 65.2632 19.8977 65.1279 19.9556C64.9926 20.0136 64.8472 20.0442 64.7 20.0459ZM79.84 20.0459C79.6907 20.0471 79.5427 20.0186 79.4045 19.9621C79.2663 19.9055 79.1407 19.8221 79.0351 19.7165C78.9295 19.611 78.8459 19.4855 78.7892 19.3474C78.7326 19.2093 78.7039 19.0612 78.705 18.9119V11.7369C78.705 9.86494 77.228 8.43994 75.329 8.43994C73.404 8.43994 71.927 9.88994 71.927 11.7369V18.9119C71.927 19.2092 71.8089 19.4944 71.5987 19.7046C71.3884 19.9148 71.1033 20.0329 70.806 20.0329C70.5087 20.0329 70.2236 19.9148 70.0133 19.7046C69.8031 19.4944 69.685 19.2092 69.685 18.9119V1.13394C69.685 0.836632 69.8031 0.551501 70.0133 0.341273C70.2236 0.131044 70.5087 0.0129395 70.806 0.0129395C71.1033 0.0129395 71.3884 0.131044 71.5987 0.341273C71.8089 0.551501 71.927 0.836632 71.927 1.13394V6.96394C71.927 7.27994 72.058 7.46394 72.401 7.46394C72.981 7.46394 73.773 6.46194 75.831 6.46194C78.705 6.46194 80.947 8.86194 80.947 11.7369V18.9119C80.9488 19.0592 80.9216 19.2054 80.8669 19.3421C80.8122 19.4788 80.7311 19.6034 80.6282 19.7087C80.5253 19.8141 80.4026 19.8981 80.2672 19.9559C80.1317 20.0138 79.9872 20.0444 79.84 20.0459ZM84.03 13.3199C84.03 9.49594 87.09 6.46194 90.94 6.46194C94.792 6.46194 97.851 9.49594 97.851 13.3199C97.851 17.1449 94.791 20.1779 90.941 20.1779C87.092 20.1779 84.03 17.1449 84.03 13.3199ZM95.612 13.3199C95.612 10.6559 93.634 8.46694 90.943 8.46694C88.279 8.46694 86.301 10.6569 86.301 13.3199C86.301 15.9839 88.279 18.1729 90.943 18.1729C93.633 18.1729 95.612 15.9839 95.612 13.3199ZM102.045 6.59394C102.678 6.59394 103.179 7.09394 103.179 7.72794V14.9019C103.179 16.7749 104.656 18.1989 106.556 18.1989C108.481 18.1989 109.958 16.7489 109.958 14.9019V7.72794C109.958 7.43063 110.076 7.1455 110.286 6.93527C110.497 6.72504 110.782 6.60694 111.079 6.60694C111.376 6.60694 111.661 6.72504 111.872 6.93527C112.082 7.1455 112.2 7.43063 112.2 7.72794V18.9379C112.2 19.5439 111.699 20.0449 111.119 20.0449C110.011 20.0449 110.064 19.0429 109.483 19.0429C108.903 19.0429 108.112 20.1769 106.054 20.1769C103.179 20.1769 100.938 17.7769 100.938 14.9019V7.72794C100.94 7.09494 101.439 6.59394 102.045 6.59394ZM116.182 19.2019C115.681 18.8849 115.338 18.5689 115.338 17.9619C115.338 17.3819 115.786 16.9339 116.34 16.9339C117 16.9339 117.29 17.3289 117.844 17.6189C118.529 18.0149 119.321 18.2259 120.297 18.2259C122.09 18.2259 122.987 17.4079 122.987 16.4059C122.987 14.9819 121.668 14.7179 119.875 14.2429C117.659 13.6629 115.523 13.0029 115.523 10.4449C115.523 8.17694 117.263 6.46194 120.349 6.46194C121.563 6.46194 122.697 6.77894 123.594 7.33194C123.91 7.51694 124.227 7.91294 124.227 8.36194C124.227 8.94194 123.752 9.44194 123.145 9.44194C122.749 9.44194 122.433 9.17894 122.037 8.91494C121.642 8.65194 121.061 8.41494 120.27 8.41494C118.503 8.41494 117.738 9.17894 117.738 10.2079C117.738 11.5529 119.031 11.8689 120.877 12.3179C123.04 12.8449 125.176 13.5309 125.176 16.1419C125.176 18.4109 123.488 20.1779 120.244 20.1779C118.661 20.1779 117.237 19.8609 116.182 19.2019ZM127.287 13.3199C127.287 9.33694 130.03 6.46194 133.802 6.46194C137.257 6.46194 140 8.99394 140 12.4499C140 13.2669 139.473 13.8209 138.708 13.8209H130.136C129.766 13.8209 129.635 13.9529 129.635 14.2429C129.635 14.9029 130.162 16.1159 130.953 16.9069C131.745 17.6979 132.826 18.1729 134.356 18.1729C135.49 18.1729 136.492 17.7509 137.257 17.1969C137.495 17.0129 137.758 16.9069 138.022 16.9069C138.576 16.9069 139.024 17.4079 139.024 17.9359C139.024 18.2519 138.919 18.5159 138.655 18.7529C137.547 19.6769 135.991 20.1779 134.303 20.1779C130.217 20.1779 127.287 17.2239 127.287 13.3199ZM136.627 9.52194C135.888 8.78294 134.939 8.41394 133.805 8.41394C132.67 8.41394 131.615 8.86294 130.85 9.62694C130.244 10.2339 129.822 11.0249 129.822 11.5529C129.822 11.8169 129.98 11.9229 130.323 11.9229H137.181C137.497 11.9229 137.655 11.8169 137.655 11.5529C137.655 10.9199 137.154 10.0489 136.627 9.52194Z" fill="white"/>
</g>
<defs>
<clipPath id="clip0_2904_14995">
<rect width="140" height="32" fill="white"/>
</clipPath>
</defs>
</svg>
