<svg width="127" height="30" viewBox="0 0 127 30" fill="none" xmlns="http://www.w3.org/2000/svg">
<path d="M0 31.98L7.10359 24.8779V15.4907L0 8.38708V31.98Z" fill="#EB1F3A"/>
<path d="M23.5934 -1L7.104 15.4908L11.7977 20.183L16.4913 15.4908V24.8766L23.5934 31.9802V-1Z" fill="#EB1F3A"/>
<path d="M3.55859 28.4235L7.10385 24.8768V15.491L3.58331 11.9675L3.55859 28.4235Z" fill="url(#paint0_linear_801_10086)"/>
<path d="M11.7974 15.491H7.10376L11.7974 20.1832L16.491 15.491V24.8753L20 28.3858L20.0424 7.24487L11.7974 15.491Z" fill="url(#paint1_linear_801_10086)"/>
<path d="M95.7127 9.6909C95.7127 11.6116 92.8018 11.6116 92.8018 9.6909C92.8018 7.77165 95.7127 7.77165 95.7127 9.6909Z" fill="#EB1F3A"/>
<path d="M124.015 22.465V17.2502C124.015 15.7345 123.186 14.5818 121.609 14.5818C120.094 14.5818 119.063 15.8564 119.063 17.3721V22.465H116.617V12.481H118.82L118.982 13.8356C119.992 12.844 121.002 12.3388 122.257 12.3388C124.601 12.3388 126.48 14.0983 126.48 17.2298V22.465H124.015ZM107.545 17.4932C107.545 19.0089 108.455 20.4243 110.254 20.4243C112.053 20.4243 112.962 19.0089 112.962 17.4932C112.962 15.9979 111.911 14.5432 110.254 14.5432C108.476 14.5432 107.545 15.9979 107.545 17.4932ZM115.447 17.4932C115.447 20.3634 113.487 22.6877 110.254 22.6877C107.02 22.6877 105.08 20.3634 105.08 17.4932C105.08 14.6433 107.06 12.3002 110.234 12.3002C113.406 12.3002 115.447 14.6433 115.447 17.4932ZM99.5254 12.5004L99.7069 13.6516C100.475 12.4205 101.506 12.239 102.516 12.239C103.547 12.239 104.538 12.6426 105.084 13.1885L103.972 15.3313C103.467 14.906 103.002 14.6838 102.194 14.6838C100.9 14.6838 99.7069 15.3705 99.7069 17.2099V22.4654H97.2418V12.5004H99.5254ZM93.0249 22.4654H95.49V12.4612H93.0249V22.4654ZM89.2272 16.3199C89.0646 15.0263 88.0542 14.3817 86.6401 14.3817C85.3059 14.3817 84.2142 15.0263 83.8512 16.3199H89.2272ZM83.8105 18.3625C83.9717 19.5951 85.0431 20.4836 86.7809 20.4836C87.6911 20.4836 88.8831 20.141 89.4493 19.5559L91.0259 21.1107C89.9749 22.2025 88.2573 22.728 86.7417 22.728C83.3053 22.728 81.2642 20.6055 81.2642 17.413C81.2642 14.3817 83.3257 12.1982 86.5587 12.1982C89.8935 12.1982 91.9754 14.2598 91.5921 18.3625H83.8105ZM80.0183 22.4654H77.5721V8.33664H80.0183V22.4654ZM72.8785 22.4654H75.345V12.4612H72.8785V22.4654ZM75.5671 9.69116C75.5671 11.6119 72.6578 11.6119 72.6578 9.69116C72.6578 7.77189 75.5671 7.77189 75.5671 9.69116ZM63.3424 17.4737C63.3424 19.2725 64.6766 20.4034 66.2314 20.4034C67.8081 20.4034 69.0624 19.2115 69.0624 17.4737C69.0624 15.675 67.8081 14.5629 66.2314 14.5629C64.6766 14.5629 63.3424 15.7345 63.3424 17.4737ZM63.1799 8.33621V13.8544C63.7663 12.8251 65.4039 12.2589 66.4536 12.2589C69.3645 12.2589 71.5275 14.0374 71.5275 17.4737C71.5275 20.7475 69.3237 22.6871 66.3941 22.6871C65.1818 22.6871 63.9478 22.2821 63.1799 21.0916L63.0187 22.465H60.7147V8.33621H63.1799ZM51.582 17.4932C51.582 19.0089 52.4923 20.4243 54.291 20.4243C56.0898 20.4243 56.9985 19.0089 56.9985 17.4932C56.9985 15.9979 55.9489 14.5432 54.291 14.5432C52.5111 14.5432 51.582 15.9979 51.582 17.4932ZM59.484 17.4932C59.484 20.3634 57.5241 22.6877 54.291 22.6877C51.0578 22.6877 49.1169 20.3634 49.1169 17.4932C49.1169 14.6433 51.097 12.3002 54.2707 12.3002C57.4428 12.3002 59.484 14.6433 59.484 17.4932ZM39.039 22.465V17.1297C39.039 15.8144 38.3523 14.6239 36.9978 14.6239C35.6636 14.6239 34.8753 15.8144 34.8753 17.1297V22.465H32.4102V12.481H34.6938L34.8753 13.6933C35.4008 12.6829 36.5535 12.3199 37.503 12.3199C38.6949 12.3199 39.8883 12.8048 40.453 14.1796C41.343 12.7641 42.4956 12.3591 43.7892 12.3591C46.6187 12.3591 48.0124 14.0983 48.0124 17.089V22.465H45.5473V17.089C45.5473 15.7752 45.0015 14.6631 43.6672 14.6631C42.3331 14.6631 41.5055 15.8144 41.5055 17.1297V22.465H39.039Z" fill="white"/>
<defs>
<linearGradient id="paint0_linear_801_10086" x1="5.33057" y1="28.423" x2="5.33057" y2="11.9683" gradientUnits="userSpaceOnUse">
<stop stop-color="#EB1C3A"/>
<stop offset="1" stop-color="#A11C3F"/>
</linearGradient>
<linearGradient id="paint1_linear_801_10086" x1="13.5729" y1="28.386" x2="13.5729" y2="7.24518" gradientUnits="userSpaceOnUse">
<stop stop-color="#EB1C3A"/>
<stop offset="1" stop-color="#A11C3F"/>
</linearGradient>
</defs>
</svg>
