<svg width="62" height="26" viewBox="0 0 62 26" fill="none" xmlns="http://www.w3.org/2000/svg">
<path d="M15.4108 17.6862C14.9369 11.8238 15.2273 5.95181 15.1242 0.045456H20.3426V25.1861C20.2299 25.1957 20.1229 25.211 20.0159 25.211C18.0898 25.211 16.1617 25.2072 14.2356 25.2186C13.9624 25.2186 13.8152 25.1384 13.6853 24.8919C10.8019 19.4059 7.83628 13.962 5.46304 8.22568C5.29107 7.80912 5.10954 7.39448 4.87068 6.9932C5.34839 13.0524 5.14584 19.1097 5.18597 25.188H0V0.0397236C0.13949 0.0282586 0.290445 0.00723961 0.4414 0.00723961C2.33502 0.00341797 4.23056 0.00723961 6.12609 0.00341797C6.37641 0.00341797 6.56941 0.0263478 6.70507 0.295774C9.03437 4.88557 11.3923 9.4639 13.7025 14.0632C14.2146 15.0817 14.5738 16.1766 15.0114 17.2333C15.084 17.4072 15.1987 17.5639 15.2961 17.7282L15.4127 17.6842L15.4108 17.6862Z" fill="white"/>
<path d="M40.7541 3.04693C39.621 4.39214 38.4974 5.72972 37.4388 6.98704C36.6152 6.40806 35.8585 5.7622 35.0025 5.3017C33.8579 4.6845 32.593 4.59087 31.3433 4.99214C29.635 5.54246 29.1764 7.42653 30.5407 8.59022C31.3471 9.27812 32.3465 9.76729 33.3095 10.2393C34.9929 11.0647 36.7433 11.7584 38.2948 12.8361C40.349 14.2635 41.4897 16.1953 41.3961 18.7176C41.3044 21.236 40.1044 23.1564 37.9528 24.473C35.591 25.9176 32.9828 26.1469 30.3076 25.929C28.1159 25.7513 26.0675 25.1074 24.2312 23.8692C23.8242 23.5959 23.4516 23.2711 23.0178 22.9367C24.0688 21.4004 25.1044 19.887 26.1439 18.366C26.8013 18.8915 27.4051 19.4341 28.0662 19.8927C29.6331 20.9781 31.3719 21.5074 33.2904 21.3125C34.5745 21.1825 35.4936 20.4087 35.7363 19.3176C35.9006 18.5781 35.6808 17.9246 35.1363 17.4641C34.5496 16.9654 33.898 16.5163 33.2101 16.1685C31.5516 15.3278 29.8356 14.6036 28.1847 13.7494C26.8853 13.0768 25.7904 12.1252 25.0185 10.8545C23.6236 8.55774 23.8739 5.40679 25.6165 3.21126C26.9942 1.47623 28.8516 0.559036 30.9802 0.192159C33.6057 -0.258795 36.1528 0.0736877 38.5413 1.29852C39.3745 1.72655 40.1503 2.25967 40.7522 3.04502L40.7541 3.04693Z" fill="white"/>
<path d="M48.3475 5.90763C47.4704 6.48469 46.5456 7.09234 45.5806 7.72673C44.8659 6.31654 44.1647 4.93311 43.4424 3.50572C44.1838 2.98407 44.9175 2.46432 45.657 1.95031C46.5054 1.35987 47.285 0.54586 48.2271 0.251593C49.1863 -0.0464952 50.3041 0.165606 51.3532 0.159874C52.0525 0.156052 52.7519 0.159874 53.4895 0.159874V25.2834H48.1545C48.2175 18.8343 48.2825 12.3796 48.3455 5.90763H48.3475Z" fill="white"/>
<path d="M55.5779 22.3824C55.5893 20.7716 56.9174 19.4971 58.5702 19.5123C60.1562 19.5276 61.4785 20.8786 61.4556 22.4588C61.4307 24.0353 60.0874 25.369 58.5148 25.3767C56.8887 25.3843 55.5664 24.0353 55.5798 22.3805L55.5779 22.3824Z" fill="#CD306A"/>
</svg>
