<svg xmlns="http://www.w3.org/2000/svg" xmlns:xlink="http://www.w3.org/1999/xlink" version="1.1" id="Layer_1" x="0px" y="0px" viewBox="0 0 142 28" style="enable-background:new 0 0 142 28;" xml:space="preserve" width="284"  height="56" > <path d="M51.9,15.2c-0.3,0.6-0.8,1.4-1.6,2.2c-1.2,1.3-4.1,3.2-2.5-1c1.6-4.2,2.1-4.6,2.1-6.5c0-1.9-2.2-2.1-3.6-1.6 c-0.6,0.2-1.7,0.8-2.6,1.4l0.5-1.3h-3.7L38,14.9c-1,1-1.9,1.9-2.5,2.1c-0.6,0.2-1,0.3-1.3,0.3l3.3-8.7h-3.7l-2.3,6 c-0.2,0.6-0.6,1.7-1.6,3c-0.4,0.5-0.8,0.9-1.3,1c-1.3,0.4-1.3-0.3-1.2-0.5l3.6-9.5h-3.7l-0.5,1.3c-0.5,1.2-2.2,5.5-3.4,7.1 c-0.9,1.3-1.6,1.9-2.1,1.9c-0.5,0-0.5-0.7-0.4-1.3l3.4-9h-3.7L19,12.4c-0.6,1.3-1.3,2.7-1.9,3.4c-1.3,1.3-2.5,1.2-2.8,1.1 c0.5-0.9,2.3-4.3,2.7-7.5c0.9-7.8-2.7-8.7-5.1-8.4C10.1,1.2,8.9,2.1,8.2,3C6.8,3.6,4.8,4.9,2.6,8.5C-1.3,14.9-1,23.3,5.2,23.3 c3.5,0,6.1-2.3,7.7-4.5c2,0.3,3.5-0.4,4.1-0.8v0c0,0-0.6,2.5,2,3.3c1.3,0.4,2.7-0.1,3.6-0.8c0.9-0.6,1.3-1.3,1.3-1.3 s-0.1,2.1,2.9,2.1c2.4,0,4.5-1.7,5.4-2.5c0.3,0.1,0.5,0.1,0.5,0.1v0c0.4,0.1,0.9,0.1,1.5,0.1c0.9-0.1,1.7-0.3,2.6-0.7l-1,2.8h3.7 l3-8.1c1.4-1.6,2.6-2,3.2-1.5c0.8,0.7-2.7,5.7-1.9,7.9c0.8,2.2,3.4,2.6,6.2,0.6c1.4-1,2.4-2.2,2.9-3.1C53.4,16,52.7,15.2,51.9,15.2z M9.4,17.6c-1,1.5-2.3,2.8-3.6,2.7c-4.1-0.1-1.4-8.4,0.5-11.5c0,0-0.1,0.4,0.3,3.1c0.6,3.6,3,5.5,3,5.5L9.4,17.6z M12,12.8 c0,0-0.4,0.9-1,2.2c0,0-1.5-1.5-1.7-5.1c-0.1-2,1-5.8,3.3-4.9C14.9,5.9,12,12.8,12,12.8z"/> <path d="M65.8,4.3v7h0c0.1-0.4,0.4-0.8,0.7-1.2c0.3-0.3,0.6-0.6,1-0.8c0.4-0.2,0.8-0.4,1.2-0.5c0.4-0.1,0.9-0.2,1.3-0.2 c0.9,0,1.7,0.2,2.4,0.5c0.7,0.3,1.2,0.8,1.7,1.4c0.5,0.6,0.8,1.3,1,2c0.2,0.8,0.3,1.6,0.3,2.5c0,0.9-0.1,1.7-0.3,2.5 c-0.2,0.8-0.6,1.5-1,2c-0.5,0.6-1,1-1.7,1.4c-0.7,0.3-1.5,0.5-2.4,0.5c-1,0-1.9-0.2-2.6-0.7c-0.8-0.5-1.3-1.1-1.7-2h0V21h-1.4V4.3 H65.8z M73.8,13.1c-0.1-0.6-0.4-1.2-0.7-1.7c-0.3-0.5-0.7-0.9-1.2-1.2c-0.5-0.3-1.1-0.5-1.8-0.5c-0.8,0-1.5,0.1-2,0.5 c-0.5,0.3-1,0.7-1.3,1.2c-0.3,0.5-0.6,1-0.7,1.7c-0.1,0.6-0.2,1.2-0.2,1.9c0,0.6,0.1,1.3,0.2,1.9c0.1,0.6,0.4,1.2,0.7,1.7 c0.3,0.5,0.8,0.9,1.3,1.2s1.2,0.5,2,0.5c0.7,0,1.3-0.1,1.8-0.5s0.9-0.7,1.2-1.2c0.3-0.5,0.6-1,0.7-1.7c0.1-0.6,0.2-1.2,0.2-1.9 C74,14.3,73.9,13.7,73.8,13.1z"/> <path d="M77.4,10.8c0.2-0.5,0.6-0.9,1-1.3c0.4-0.3,0.9-0.6,1.5-0.7c0.6-0.2,1.2-0.2,1.9-0.2c0.5,0,1.1,0,1.6,0.1s1,0.3,1.4,0.6 c0.4,0.3,0.8,0.7,1,1.2c0.3,0.5,0.4,1.2,0.4,2v6.5c0,0.6,0.3,0.9,0.9,0.9c0.2,0,0.3,0,0.5-0.1V21c-0.2,0-0.3,0-0.5,0.1 c-0.1,0-0.3,0-0.5,0c-0.4,0-0.7,0-0.9-0.1c-0.2-0.1-0.4-0.2-0.5-0.4c-0.1-0.2-0.2-0.4-0.2-0.7c0-0.3,0-0.5,0-0.9h0 c-0.3,0.4-0.5,0.8-0.8,1c-0.3,0.3-0.6,0.6-0.9,0.8c-0.3,0.2-0.7,0.4-1.2,0.5c-0.4,0.1-0.9,0.2-1.6,0.2c-0.6,0-1.1-0.1-1.6-0.2 c-0.5-0.1-0.9-0.3-1.3-0.6c-0.4-0.3-0.7-0.7-0.9-1.1c-0.2-0.4-0.3-1-0.3-1.6c0-0.9,0.2-1.5,0.6-2c0.4-0.5,0.9-0.9,1.5-1.1 c0.6-0.2,1.3-0.4,2.1-0.5c0.8-0.1,1.6-0.2,2.4-0.3c0.3,0,0.6-0.1,0.8-0.1c0.2,0,0.4-0.1,0.6-0.2c0.1-0.1,0.3-0.3,0.4-0.5 c0.1-0.2,0.1-0.5,0.1-0.8c0-0.5-0.1-0.9-0.2-1.2c-0.2-0.3-0.4-0.6-0.7-0.8c-0.3-0.2-0.6-0.3-1-0.4c-0.4-0.1-0.8-0.1-1.2-0.1 c-0.9,0-1.7,0.2-2.3,0.7c-0.6,0.5-0.9,1.2-0.9,2.2h-1.5C77,11.9,77.1,11.3,77.4,10.8z M84.8,14.4c-0.1,0.2-0.3,0.3-0.5,0.4 c-0.3,0.1-0.5,0.1-0.7,0.2c-0.6,0.1-1.3,0.2-1.9,0.3c-0.7,0.1-1.3,0.2-1.8,0.4c-0.6,0.2-1,0.4-1.4,0.8c-0.4,0.3-0.5,0.8-0.5,1.4 c0,0.4,0.1,0.7,0.2,1c0.1,0.3,0.3,0.5,0.6,0.8c0.2,0.2,0.5,0.4,0.9,0.5c0.3,0.1,0.7,0.2,1,0.2c0.6,0,1.1-0.1,1.6-0.3 c0.5-0.2,1-0.4,1.4-0.8c0.4-0.3,0.7-0.7,0.9-1.2c0.2-0.5,0.3-1,0.3-1.6L84.8,14.4C84.9,14.4,84.8,14.4,84.8,14.4z"/> <path d="M96,10.6c-0.6-0.5-1.3-0.8-2.3-0.8c-0.7,0-1.3,0.1-1.9,0.4c-0.5,0.3-1,0.7-1.3,1.2c-0.4,0.5-0.6,1-0.8,1.7 c-0.2,0.6-0.3,1.3-0.3,1.9c0,0.6,0.1,1.3,0.3,1.9c0.2,0.6,0.4,1.2,0.8,1.7c0.4,0.5,0.8,0.9,1.3,1.2c0.5,0.3,1.2,0.4,1.9,0.4 c0.5,0,0.9-0.1,1.3-0.3c0.4-0.2,0.8-0.4,1.1-0.7c0.3-0.3,0.6-0.7,0.8-1.1c0.2-0.4,0.3-0.9,0.4-1.4h1.5c-0.2,1.5-0.8,2.6-1.6,3.4 c-0.9,0.8-2,1.2-3.4,1.2c-0.9,0-1.7-0.2-2.5-0.5c-0.7-0.3-1.3-0.8-1.8-1.4s-0.9-1.3-1.1-2c-0.2-0.8-0.4-1.6-0.4-2.5 c0-0.9,0.1-1.7,0.4-2.5c0.2-0.8,0.6-1.5,1.1-2c0.5-0.6,1.1-1,1.8-1.4c0.7-0.3,1.5-0.5,2.5-0.5c1.3,0,2.4,0.3,3.3,1 c0.9,0.7,1.4,1.7,1.6,3.1h-1.5C96.9,11.8,96.6,11.1,96,10.6z"/> <path d="M101.6,4.3v10.5l6.7-5.9h2l-5.2,4.5l5.5,7.7h-1.9l-4.8-6.6l-2.4,2V21h-1.5V4.3H101.6z"/> <path d="M119.8,21.1v-2.2h0c-0.4,0.8-1,1.4-1.7,1.9c-0.7,0.4-1.6,0.7-2.5,0.7c-0.8,0-1.4-0.1-2-0.3c-0.5-0.2-1-0.5-1.3-0.9 c-0.3-0.4-0.6-0.9-0.7-1.4c-0.1-0.6-0.2-1.2-0.2-1.9V8.9h1.5v7.9c0,1.1,0.3,1.9,0.8,2.5c0.5,0.6,1.3,0.9,2.5,0.9 c0.6,0,1.2-0.1,1.7-0.4c0.5-0.3,0.8-0.6,1.1-1.1c0.3-0.5,0.5-1,0.7-1.6c0.1-0.6,0.2-1.2,0.2-1.8V8.9h1.5V21L119.8,21.1L119.8,21.1z"/> <path d="M124.7,8.9v2.3h0c0.3-0.9,0.9-1.5,1.7-2c0.8-0.5,1.7-0.7,2.6-0.7c0.9,0,1.7,0.2,2.4,0.5c0.7,0.3,1.3,0.8,1.7,1.4 c0.5,0.6,0.8,1.3,1,2c0.2,0.8,0.3,1.6,0.3,2.5c0,0.9-0.1,1.7-0.3,2.5c-0.2,0.8-0.6,1.5-1,2c-0.5,0.6-1,1-1.7,1.4 c-0.7,0.3-1.5,0.5-2.4,0.5c-0.4,0-0.9,0-1.3-0.2c-0.4-0.1-0.8-0.3-1.2-0.5c-0.4-0.2-0.7-0.5-1-0.8c-0.3-0.3-0.5-0.7-0.7-1.2h0v6.8 h-1.5V8.9H124.7z M132.8,13.1c-0.1-0.6-0.4-1.2-0.7-1.7c-0.3-0.5-0.7-0.9-1.2-1.2c-0.5-0.3-1.1-0.5-1.8-0.5c-0.8,0-1.5,0.1-2,0.4 c-0.5,0.3-1,0.7-1.3,1.1c-0.3,0.5-0.6,1-0.7,1.7c-0.1,0.6-0.2,1.3-0.2,2c0,0.6,0.1,1.3,0.2,1.9c0.1,0.6,0.4,1.2,0.7,1.7 c0.3,0.5,0.8,0.9,1.3,1.2c0.5,0.3,1.2,0.5,2,0.5c0.7,0,1.3-0.1,1.8-0.5s0.9-0.7,1.2-1.2c0.3-0.5,0.6-1,0.7-1.7 c0.1-0.6,0.2-1.2,0.2-1.9C133,14.4,133,13.7,132.8,13.1z"/> <path d="M55.3,13c2,0,2.3-1.3,2.3-2.5c0-0.9-0.1-1.9-0.2-2.8c-0.1-0.9-0.2-1.9-0.2-2.8c0-3.1,1.7-4.4,4.2-4.4h0.6v1.9h-0.5 c-1.7,0-2.3,1.1-2.3,2.9c0,0.8,0.1,1.6,0.2,2.4c0.1,0.9,0.2,1.7,0.2,2.6c0,2.2-0.8,3.3-2.1,3.7v0.1c1.3,0.4,2.1,1.5,2.1,3.7 c0,0.9-0.1,1.8-0.2,2.6c-0.1,0.9-0.2,1.6-0.2,2.5c0,1.9,0.7,2.9,2.3,2.9h0.5v1.9h-0.6c-2.4,0-4.2-1.2-4.2-4.6c0-0.9,0.1-1.9,0.2-2.8 c0.1-0.9,0.2-1.8,0.2-2.7c0-1-0.3-2.5-2.3-2.5V13z"/> <path d="M142,14.8c-2,0-2.3,1.5-2.3,2.5c0,0.9,0.1,1.8,0.2,2.7c0.1,0.9,0.2,1.9,0.2,2.8c0,3.4-1.8,4.6-4.2,4.6h-0.6v-1.9h0.5 c1.6,0,2.3-1,2.3-2.9c0-0.8-0.1-1.6-0.2-2.5c-0.1-0.8-0.2-1.7-0.2-2.6c0-2.2,0.8-3.3,2.1-3.7v-0.1c-1.3-0.4-2.1-1.5-2.1-3.7 c0-0.9,0.1-1.7,0.2-2.6c0.1-0.8,0.2-1.6,0.2-2.4c0-1.8-0.6-2.9-2.3-2.9h-0.5V0.4h0.6c2.4,0,4.2,1.3,4.2,4.4c0,0.9-0.1,1.9-0.2,2.8 c-0.1,0.9-0.2,1.9-0.2,2.8c0,1.2,0.3,2.5,2.3,2.5L142,14.8L142,14.8z"/> </svg>