<svg width="118" height="22" viewBox="0 0 118 22" fill="none" xmlns="http://www.w3.org/2000/svg">
<path fill-rule="evenodd" clip-rule="evenodd" d="M49.7453 13.4464C48.6189 13.4464 48.0858 13.0098 48.0858 12.3342V12.2943C48.0858 11.6986 48.4216 11.2616 49.6464 11.0826L50.1799 11.0034C50.959 10.894 51.4389 10.7495 51.8789 10.4815V11.3611C51.8789 12.6916 51.049 13.4464 49.7453 13.4464ZM50.0414 3.97217C48.5204 3.97217 46.9398 4.38949 44.9841 5.44211L46.0706 8.14303C47.7697 7.18992 49.1723 6.77294 50.1998 6.77294C51.3652 6.77294 51.8786 7.20955 51.8786 7.78595V7.82555C51.8786 8.22291 51.5628 8.44155 50.7921 8.52075L49.4488 8.65952C46.0902 9.01728 44.7073 10.4872 44.7073 12.5129V12.6517C44.7073 14.5785 46.2879 16.0881 48.5204 16.0881C49.99 16.0881 51.2673 15.4643 52.0431 14.3629L52.2936 15.8894H55.3363V8.95805C55.3363 5.68072 53.4592 3.97251 50.0414 3.97251" fill="white"/>
<path fill-rule="evenodd" clip-rule="evenodd" d="M21.4351 4.05178L17.5431 0.13916L13.6515 4.05178L15.5875 5.99827L5.82797 15.8099L9.71994 19.7229L13.6119 15.8099L11.6756 13.8634L21.4351 4.05178ZM0 9.95082L3.89197 13.8634L13.6512 4.05178L9.7592 0.13916L0 9.95082ZM13.6119 15.8099L17.5039 19.7229L27.2631 9.91122L23.3711 5.99827L13.6119 15.8099Z" fill="#FA582D"/>
<path fill-rule="evenodd" clip-rule="evenodd" d="M57.3117 15.8894H60.7691V0H57.3117V15.8894ZM40.3615 10.1295C40.3615 11.9169 39.4328 13.2081 37.8918 13.2081C36.3508 13.2081 35.4224 11.9169 35.4224 10.1295V9.9308C35.4224 8.14338 36.3508 6.85249 37.8918 6.85249C39.4328 6.85249 40.3612 8.14338 40.3612 9.9308V10.1295H40.3615ZM38.8994 3.97252C37.3276 3.97252 36.0658 4.67178 35.3706 5.76671L35.1062 4.1712H32.0635V19.8623H35.5212V14.4232C36.1792 15.4433 37.4244 16.0884 38.899 16.0884C41.6653 16.0884 43.9174 13.6254 43.9174 10.2293V9.83129C43.9174 6.43483 41.6653 3.97185 38.8994 3.97185V3.97252ZM109.882 10.1295C109.882 11.9169 108.954 13.2081 107.412 13.2081C105.871 13.2081 104.943 11.9169 104.943 10.1295V9.9308C104.943 8.14338 105.871 6.85249 107.412 6.85249C108.954 6.85249 109.882 8.14338 109.882 9.9308V10.1295ZM107.412 3.97252C103.877 3.97252 101.387 6.43551 101.387 9.83197V10.2293C101.387 13.6254 103.877 16.0884 107.412 16.0884C110.949 16.0884 113.438 13.6254 113.438 10.2293V9.83129C113.438 6.43483 110.949 3.97185 107.412 3.97185V3.97252ZM115.571 4.38951H115.987C116.223 4.38951 116.322 4.46905 116.322 4.64775V4.66738C116.322 4.82646 116.223 4.92563 115.987 4.92563H115.571V4.38951ZM116.698 4.68735V4.62778C116.698 4.29034 116.441 4.05172 115.987 4.05172H115.197V5.87908H115.571V5.26308H115.99L116.302 5.87908H116.718L116.332 5.15612C116.567 5.08437 116.698 4.90837 116.698 4.68735H116.698Z" fill="white"/>
<path fill-rule="evenodd" clip-rule="evenodd" d="M115.908 6.59425C114.98 6.59425 114.308 5.91868 114.308 4.96557C114.308 4.01212 114.98 3.33689 115.908 3.33689C116.836 3.33689 117.508 4.01212 117.508 4.96557C117.508 5.91868 116.836 6.59425 115.908 6.59425ZM115.908 3.07865C114.841 3.07865 114.031 3.89299 114.031 4.96557C114.031 6.03815 114.841 6.85249 115.908 6.85249C116.974 6.85249 117.785 6.03815 117.785 4.96557C117.785 3.89265 116.974 3.07865 115.908 3.07865ZM87.7554 15.8894H91.2131V0H87.7554V15.8894ZM98.029 13.2081C97.0214 13.2081 96.6461 12.7116 96.6461 11.639V6.85249H100.716V4.17086H96.6461V1.48957L93.188 2.00606V11.9768C93.188 14.6977 94.571 16.0881 97.3372 16.0881C98.5618 16.0881 100.004 15.7107 101.19 15.0355L100.202 12.5725C99.5101 12.9499 98.5428 13.2081 98.029 13.2081ZM80.1894 13.4464C79.063 13.4464 78.5296 13.0098 78.5296 12.3342V12.2943C78.5296 11.6986 78.8657 11.2616 80.0902 11.0826L80.624 11.0034C81.4031 10.8941 81.8827 10.7495 82.323 10.4815V11.3611C82.323 12.6916 81.4931 13.4464 80.1894 13.4464ZM80.4855 3.97219C78.9645 3.97219 77.3839 4.38951 75.4282 5.44212L76.5147 8.14305C78.2138 7.18994 79.6164 6.77295 80.6439 6.77295C81.8093 6.77295 82.3227 7.20957 82.3227 7.78597V7.82557C82.3227 8.22292 82.0066 8.44157 81.2362 8.52077L79.8929 8.65954C76.5343 9.01729 75.1514 10.4872 75.1514 12.5129V12.6517C75.1514 14.5786 76.732 16.0881 78.9645 16.0881C80.4338 16.0881 81.7114 15.4643 82.4872 14.363L82.7377 15.8894H85.7804V8.95806C85.7804 5.68074 83.9033 3.97252 80.4855 3.97252V3.97219ZM70.8052 10.1295C70.8052 11.9169 69.8765 13.2081 68.3358 13.2081C66.7948 13.2081 65.8664 11.9169 65.8664 10.1295V9.9308C65.8664 8.14338 66.7948 6.85249 68.3358 6.85249C69.8765 6.85249 70.8052 8.14338 70.8052 9.9308V10.1295ZM68.3354 3.97252C64.7989 3.97252 62.3098 6.43551 62.3098 9.83197V10.2293C62.3098 13.6254 64.7989 16.0884 68.3354 16.0884C71.8717 16.0884 74.3607 13.6254 74.3607 10.2293V9.83129C74.3607 6.43483 71.8717 3.97185 68.3354 3.97185V3.97252ZM82.4869 18.7068H83.3726L84.5955 20.3287H84.608V18.7068H85.4203V21.5661H84.563L83.3117 19.9036H83.2995V21.5661H82.4869V18.7068ZM86.5007 18.7068H88.987L89.0202 19.4013H87.3502V19.7936H88.6617V20.4265H87.3502V20.8719H89.0686L89.0358 21.5661H86.5007V18.7068ZM90.7995 19.4422H89.8041L89.8362 18.7068H92.6187L92.6519 19.4422H91.6565V21.5661H90.7995V19.4422ZM93.3386 18.7068H94.2477L94.7111 20.6922H94.7564L95.3569 18.7068H96.1905L96.7791 20.6922H96.8241L97.279 18.7068H98.1482L97.4005 21.5661H96.2836L95.7637 19.8423H95.7393L95.211 21.5661H94.0897L93.3386 18.7068ZM101.175 20.1364C101.175 19.6423 100.891 19.3482 100.399 19.3482C99.9075 19.3482 99.6235 19.6423 99.6235 20.1368C99.6235 20.6309 99.9075 20.925 100.395 20.925C100.886 20.925 101.175 20.6306 101.175 20.1364ZM98.774 20.1364C98.774 19.2053 99.4035 18.6211 100.399 18.6211C101.394 18.6211 102.024 19.2053 102.024 20.1364C102.024 21.0679 101.394 21.6517 100.399 21.6517C99.4035 21.6517 98.774 21.0679 98.774 20.1364ZM104.494 20.1446C104.778 20.1446 104.879 19.9855 104.879 19.7689C104.879 19.5522 104.778 19.3972 104.494 19.3972H103.799V20.1446H104.494ZM102.947 18.7068H104.604C105.359 18.7068 105.729 19.0662 105.729 19.7323C105.729 20.1896 105.542 20.5003 105.176 20.6472L105.851 21.5661H104.884L104.36 20.8147H103.799V21.5661H102.946V18.7068H102.947ZM106.838 18.7068H107.691V19.7607H108.04L108.873 18.7068H109.832L109.836 18.7112L108.748 20.0792L109.897 21.562L109.893 21.5661H108.897L108.037 20.4674H107.691V21.5661H106.838V18.7068ZM110.551 21.3783V20.594H110.555C111.031 20.835 111.494 20.9535 111.895 20.9535C112.2 20.9535 112.355 20.88 112.355 20.7369C112.355 20.594 112.254 20.5575 111.644 20.4593C110.978 20.353 110.535 20.153 110.535 19.577C110.535 19.0422 111.002 18.6293 111.916 18.6293C112.282 18.6293 112.664 18.7071 113.017 18.8581V19.6342L113.013 19.6382C112.676 19.4419 112.221 19.3197 111.856 19.3197C111.531 19.3197 111.4 19.3976 111.4 19.5279C111.4 19.6954 111.599 19.712 112.099 19.7976C112.766 19.912 113.208 20.0999 113.208 20.7044C113.208 21.1742 112.859 21.6436 111.856 21.6436C111.359 21.6436 110.965 21.5417 110.551 21.3783Z" fill="white"/>
</svg>
