<svg width="158" height="23" viewBox="0 0 158 23" fill="none" xmlns="http://www.w3.org/2000/svg">
<path d="M84.67 6.85496C85.1746 5.72654 86.0241 5.33767 87.1294 5.37586C87.4593 5.38628 87.6155 5.46729 87.6132 5.8388C87.59 9.23101 87.6132 12.6244 87.5507 16.0166C87.529 16.8974 87.396 17.772 87.1549 18.6195C86.4431 21.1506 84.5844 22.426 82.1181 22.8589C79.5267 23.3137 77.1623 22.6506 75.0327 21.1228C74.9725 21.0789 74.917 21.0245 74.8094 20.9261L76.1808 18.8567C77.1692 19.2977 78.087 19.7653 79.0453 20.1194C80.0429 20.4875 81.0903 20.4504 82.1157 20.1889C83.3692 19.8683 84.2511 18.8058 84.4305 17.4459C84.4768 17.1057 84.5184 16.7642 84.5763 16.3175C84.1909 16.6057 83.8969 16.8615 83.5694 17.0628C80.4769 18.9748 75.4853 17.5026 74.6334 13.0283C74.2862 11.2182 74.4378 9.44049 75.4899 7.86649C76.631 6.16055 78.2363 5.26128 80.3323 5.19647C82.0081 5.14555 83.4467 5.56335 84.67 6.85496ZM81.1331 7.7496C78.999 7.74497 77.6345 9.19398 77.631 11.4659C77.6275 13.7991 78.9434 15.2562 81.0475 15.2608C83.265 15.2608 84.6156 13.8384 84.6156 11.4913C84.6145 9.21828 83.2534 7.75538 81.1331 7.7496Z" fill="white"/>
<path d="M28.6832 8.97078C28.2908 8.66292 27.9621 8.36896 27.5976 8.12823C26.7874 7.59121 25.8812 7.46969 24.9357 7.63866C24.4218 7.73009 24.0422 8.02985 23.9519 8.56455C23.8663 9.07957 24.1764 9.42909 24.607 9.60617C25.6173 10.0263 26.6497 10.3943 27.6705 10.7913C28.873 11.26 29.829 11.9869 30.1704 13.3074C30.6113 15.0133 29.8787 16.7054 28.3313 17.5896C25.9865 18.931 22.5642 18.3766 20.7356 16.3813C20.3988 16.0133 20.2784 15.7402 20.6939 15.3397C21.1094 14.9393 21.459 14.4347 21.8733 13.9324C22.5851 14.8467 23.4438 15.4369 24.5097 15.6927C25.2516 15.8675 25.9958 15.901 26.7087 15.5503C27.5478 15.1372 27.6728 14.121 26.9159 13.5828C26.5478 13.319 26.1057 13.1523 25.6764 12.9868C24.9414 12.7021 24.1718 12.4903 23.4519 12.1824C21.8582 11.5054 21.0689 10.274 21.1442 8.67218C21.2147 7.17688 22.1858 5.89453 23.7887 5.46399C25.8905 4.90499 27.9043 5.08091 29.6299 6.60977C29.9401 6.88407 30.0326 7.10512 29.7456 7.46737C29.3614 7.93263 29.0396 8.45576 28.6832 8.97078Z" fill="white"/>
<path d="M55.395 1.77538C55.395 0.637703 56.0316 0.00115736 57.1739 0C58.396 0 59.1229 0.64349 59.1414 1.73603C59.1587 2.78576 58.3683 3.54961 57.2653 3.5473C56.1056 3.55077 55.3962 2.87719 55.395 1.77538Z" fill="white"/>
<path d="M45.0769 10.1811C44.4034 6.5609 41.5169 4.67325 37.8504 5.29359C36.7556 5.47993 35.8424 6.03083 35.0195 6.88959C34.5682 5.93014 33.8923 5.43363 32.9154 5.38502C32.1493 5.3503 32.1423 5.3503 32.1423 6.11069C32.1423 10.6861 32.1423 15.2607 32.1423 19.8346V22.7407H34.2892C34.405 22.7407 34.5288 22.7407 34.6492 22.7512C34.7265 22.7551 34.804 22.7516 34.8806 22.7407H35.2278V22.3195C35.2278 22.2697 35.2336 22.2153 35.2336 22.1563C35.2336 21.9642 35.2336 21.7709 35.2278 21.5776V19.6888H35.2209C35.2209 18.9712 35.2209 18.2525 35.2267 17.5338C35.2267 17.337 35.244 17.1414 35.2591 16.822C36.1711 17.6692 37.1271 18.1333 38.2289 18.2548C40.3225 18.4863 42.1731 17.9759 43.5967 16.351C45.1649 14.5629 45.4948 12.4345 45.0769 10.1811ZM41.7785 13.4749C41.0574 15.2283 39.7751 15.6577 38.4812 15.6126C36.8146 15.5547 35.6711 14.5617 35.2834 13.0074C35.1734 12.5641 35.1503 12.1 35.0866 11.6463C35.0793 11.6151 35.0793 11.5826 35.0866 11.5514C35.1908 10.3165 35.3181 10.136 35.6445 9.48554C36.3817 8.00528 37.7729 7.58747 39.1872 7.79348C40.716 8.01685 41.782 9.18231 42.0458 10.6498C42.2343 11.5975 42.1413 12.5795 41.7785 13.4749Z" fill="white"/>
<path d="M58.7906 5.37622H55.6924V18.0643H58.7906V5.37622Z" fill="white"/>
<path d="M72.7193 17.5549C72.7193 17.5236 72.7193 17.4912 72.7193 17.4577C72.7008 15.1059 72.7297 12.753 72.6973 10.3978C72.6846 9.70541 72.5918 9.01683 72.4207 8.3458C72.1129 7.11321 71.518 6.0577 70.2518 5.53805C69.2058 5.12118 68.0552 5.04345 66.9626 5.31584C66.1733 5.49754 65.4581 5.99405 64.6954 6.35746C64.6815 6.11557 64.6641 5.77878 64.6444 5.42231H61.6677V18.0468L64.6769 18.0641V17.6301C64.6829 17.569 64.6852 17.5075 64.6838 17.4461L64.6769 16.6174V16.467C64.6618 14.7309 64.663 12.9949 64.6931 11.2589C64.7081 10.6836 64.81 10.114 64.9951 9.56912C65.472 8.14905 66.5495 7.58889 68.0239 7.84235C68.7959 7.97544 69.2438 8.39093 69.3884 9.12238C69.528 9.7397 69.6113 10.3684 69.6373 11.0008C69.6674 13.121 69.6489 15.2425 69.6489 17.3662V18.0525L72.717 18.0676L72.7193 17.5549Z" fill="white"/>
<path d="M103.998 18.0582V17.645C103.998 17.608 103.998 17.5694 103.998 17.5293C103.958 14.7933 103.977 12.0562 103.882 9.32248C103.845 8.22299 103.511 7.14897 102.71 6.3203C101.457 5.00323 99.8313 5.03795 98.2469 5.32613C97.4263 5.47543 96.681 6.03675 95.8766 6.42331V0.539307H92.8872C92.8872 0.770778 92.8872 0.95827 92.8872 1.14692C92.8872 6.51011 92.8872 11.8725 92.8872 17.2342L92.8733 17.2469V18.0571L95.8917 18.0478C95.8917 15.9021 95.8651 13.8582 95.9032 11.8166C95.9229 10.7379 96.0595 9.66275 96.7308 8.74612C97.3152 7.94639 98.1369 7.71607 99.0686 7.79014C100.084 7.87116 100.622 8.48456 100.772 9.44979C100.852 9.94248 100.894 10.4403 100.901 10.9393C100.913 13.1175 100.913 15.2964 100.901 17.4761C100.901 17.5247 100.901 17.5698 100.901 17.6126V18.0571L103.998 18.0582Z" fill="white"/>
<path d="M116.683 6.9603C115.4 5.58189 113.775 5.13168 111.924 5.19881C109.682 5.27982 107.97 6.25123 106.787 8.11303C105.822 9.62917 105.684 11.3108 105.953 13.0573C106.26 15.0525 107.216 16.6451 109.026 17.5362C111.803 18.9019 114.52 18.5015 117.068 16.8511C117.253 16.7386 117.429 16.6121 117.595 16.4726L117.935 16.2296L117.555 15.6821C117.508 15.6104 117.455 15.5328 117.392 15.4507L116.568 14.2597L116.229 14.4912C116.124 14.5479 115.998 14.6313 115.827 14.7435C114.468 15.6416 112.995 16.0236 111.387 15.6382C110.028 15.3037 108.941 13.8848 109.055 12.5689H118.155C118.181 12.2216 118.199 11.9555 118.223 11.6893C118.386 9.89189 117.923 8.28895 116.683 6.9603ZM115.19 10.3051H109.056C109.163 8.71023 110.735 7.37695 112.313 7.5031C113.89 7.62926 115.321 9.00419 115.19 10.3051Z" fill="white"/>
<path d="M130.016 17.8497V16.9886H130.009C129.993 14.4274 130.03 11.8627 129.871 9.31074C129.755 7.41151 128.622 6.025 126.746 5.51229C125.78 5.25073 124.733 5.23453 123.724 5.22758C122.437 5.21485 121.243 5.62456 120.129 6.23101L119.454 6.57127L120.535 8.77025C121.777 7.91066 123.278 7.5067 124.784 7.62678C125.941 7.71011 126.819 8.50637 126.962 9.64174C127.011 10.0214 126.91 10.1926 126.476 10.1961C125.517 10.2031 124.548 10.2031 123.6 10.3315C122.764 10.4357 121.945 10.6449 121.161 10.9542C118.437 12.0745 118.545 15.6993 120.274 17.168C121.952 18.5974 124.506 18.7038 126.488 17.3463C126.637 17.2433 126.79 17.1472 127.026 16.9921C127.014 17.2134 127.014 17.4351 127.026 17.6564V18.0453H128.22C128.831 18.0453 129.449 18.0453 130.016 18.0453C130.032 18.015 130.04 17.9815 130.04 17.9475C130.04 17.9135 130.032 17.88 130.016 17.8497ZM126.96 14.2399C126.944 14.3909 126.888 14.5348 126.798 14.6566C126.077 15.7109 124.531 16.2236 123.314 15.8209C122.543 15.5662 122.086 14.9656 122.079 14.2006C122.072 13.4356 122.487 12.8013 123.352 12.6428C124.51 12.4287 125.695 12.3662 126.971 12.2261C126.967 13.0154 126.977 13.6277 126.96 14.2399Z" fill="white"/>
<path d="M132.651 0.520752C132.64 0.752223 132.623 0.947816 132.623 1.13647C132.623 5.72654 132.623 10.3174 132.623 14.909V18.0339H133.13C133.948 18.0466 134.766 18.042 135.588 18.042V0.520752H132.651Z" fill="white"/>
<path d="M144.324 15.3812C143.088 15.8754 142.092 15.6439 142.102 14.0849C142.112 12.4461 142.084 10.8073 142.075 9.16965C142.075 8.64652 142.075 8.12803 142.075 7.5262H144.867V4.81336H142.306C142.286 4.8042 142.265 4.79336 142.246 4.78095H142.075V4.16293C142.075 4.07149 142.075 3.96849 142.075 3.85275C142.075 2.92687 142.075 2.00098 142.075 1.0751C142.075 0.892237 142.051 0.708217 142.039 0.538086H138.991C138.991 1.6179 138.991 2.65489 138.991 3.69188C138.991 3.97659 138.991 4.19186 138.973 4.35505V4.7798H138.752C138.727 4.79239 138.7 4.80322 138.674 4.8122H137.214V7.5262H138.996C138.996 7.79008 138.996 7.98915 138.996 8.18705C139.022 10.4011 139.018 12.6174 139.087 14.8303C139.123 15.9946 139.418 17.101 140.51 17.7653C141.899 18.6125 143.347 18.3903 144.782 17.8695C144.838 17.8387 144.886 17.7946 144.921 17.7411C144.956 17.6877 144.977 17.6265 144.983 17.5628C144.937 16.7851 144.862 16.0096 144.791 15.181C144.567 15.277 144.446 15.3326 144.324 15.3812Z" fill="white"/>
<path d="M157.615 16.2713C157.607 14.3292 157.622 12.3872 157.6 10.4451C157.596 9.7722 157.521 9.10155 157.378 8.44406C157.05 6.97074 156.336 5.74048 154.751 5.38632C152.923 4.97778 151.142 5.02176 149.7 6.49507C149.671 6.52516 149.603 6.51706 149.48 6.54137V0.543945H146.531C146.522 0.759214 146.506 0.930502 146.506 1.10063C146.506 6.5186 146.506 11.9366 146.506 17.3545C146.506 17.4182 146.499 17.4853 146.496 17.5501V18.0582L149.505 18.0432V17.3488C149.505 15.5363 149.467 13.7228 149.524 11.9092C149.554 11.1237 149.687 10.3456 149.919 9.59447C150.224 8.58757 150.906 7.90242 152.02 7.79131C153.203 7.67557 154.076 8.0413 154.326 9.18014C154.452 9.76171 154.517 10.3547 154.521 10.9497C154.545 13.1279 154.54 15.3072 154.521 17.4865C154.521 17.5096 154.521 17.5316 154.521 17.5536V18.0524H157.617V16.2713H157.615Z" fill="white"/>
<path d="M54.4807 5.5139C54.3986 5.30211 53.9021 5.24771 53.9021 5.24771C53.7732 5.22758 53.6434 5.21406 53.5132 5.2072C52.2945 5.13545 51.151 5.2616 50.2506 6.39349L50.2564 5.37502H47.915H47.7739C47.6999 5.369 47.6256 5.369 47.5516 5.37502H47.1257V18.0504H50.1812V16.6928C50.2136 14.6096 50.2136 12.5321 50.3189 10.4558C50.3721 9.39915 50.827 8.41771 51.9658 8.12027C52.4206 8.00453 52.9426 8.05893 53.4345 8.1492L54.1081 8.28461C54.1355 8.28958 54.1637 8.28865 54.1908 8.28189C54.2178 8.27512 54.2432 8.26268 54.265 8.24539C54.2869 8.2281 54.3049 8.20635 54.3177 8.18158C54.3306 8.15682 54.338 8.12961 54.3395 8.10175L54.4159 6.59719C54.4252 6.49303 54.4344 6.38886 54.446 6.28586C54.4727 6.10384 54.4777 5.91931 54.4611 5.73611L54.4807 5.5139Z" fill="white"/>
<path opacity="0.6" d="M14.6384 10.2816C14.5431 10.264 14.4457 10.2593 14.3491 10.2677C14.2473 10.2746 14.1442 10.2781 14.0424 10.2816H13.0297C12.8399 10.2816 12.6397 10.2816 12.4256 10.2816L12.458 10.2434C11.3006 10.2353 10.1514 10.2365 9.00096 10.2712C6.98369 10.3337 5.2002 11.1971 4.00465 12.5975H3.9491C2.98039 13.8902 2.53018 15.2085 2.5186 16.6702C2.51166 17.5382 2.54059 18.4062 2.50934 19.2742C2.50508 19.3636 2.50973 19.4532 2.52323 19.5416V19.9039H3.00122C3.03941 19.9039 3.07876 19.9039 3.11696 19.9039C4.98724 19.8761 6.85869 19.9039 8.73013 19.8888C11.642 19.8703 14.2716 17.7535 14.7646 14.8705C14.9475 13.7953 14.9104 12.6843 14.9336 11.5801L14.9613 11.5558V10.2827L14.6384 10.2816Z" fill="#00A299"/>
<path opacity="0.6" d="M12.1294 3.46432C12.0341 3.44609 11.9367 3.44141 11.8401 3.45043C11.7383 3.45622 11.6364 3.46085 11.5334 3.46432H10.5219C10.3321 3.46432 10.133 3.45854 9.91774 3.45854L9.95015 3.42034C8.79279 3.4134 7.64469 3.4134 6.49312 3.44928C4.47585 3.51177 2.69236 4.37516 1.49681 5.77441H1.44126C0.473712 7.06717 0.0235037 8.38656 0.0119301 9.8483C0.00498597 10.7163 0.0327594 11.5843 0.00151079 12.4523C-0.00271726 12.5417 0.00193441 12.6313 0.0153985 12.7197V13.082H0.493387C0.53158 13.082 0.57093 13.082 0.609123 13.082C2.48057 13.0542 4.35086 13.082 6.2223 13.0657C9.13421 13.0484 11.7637 10.9316 12.2568 8.04861C12.4408 6.97343 12.4026 5.86121 12.4269 4.75825L12.4547 4.73278V3.45969L12.1294 3.46432Z" fill="#366860"/>
</svg>
