<svg width="81" height="36" viewBox="0 0 81 36" fill="none" xmlns="http://www.w3.org/2000/svg">
<path d="M11.1388 17.8792C8.60791 17.4571 6.44754 17.1072 6.44754 15.3756C6.44754 13.9506 7.75561 13.1028 9.93079 13.1028C12.2283 13.1028 13.5326 14.2572 13.5326 16.2991H18.3832C18.3832 12.2947 15.215 9.94263 9.91228 9.94263C4.60958 9.94263 1.38942 12.1396 1.38942 15.7977C1.38942 20.2313 5.50633 20.8843 8.94881 21.4254C11.5613 21.8475 13.8958 22.2336 13.8958 24.2753C13.8958 25.8952 12.4321 26.8006 9.89744 26.8006C7.30354 26.8006 5.74348 25.5308 5.74348 23.3698H0.88916C0.88916 27.5907 4.22419 30.0547 9.91228 30.0547C15.6003 30.0547 18.9353 27.6665 18.9353 23.6982C18.9353 19.1491 14.6628 18.4565 11.1536 17.8792" fill="#003149"/>
<path d="M29.1334 27.8215H29.074L24.5348 10.3286H18.9355L24.7237 29.6686H25.0313H32.5685H33.4875L39.2756 10.3286H33.6728L29.1334 27.8215Z" fill="#003149"/>
<path d="M50.8403 26.0752C48.4798 26.0752 46.8383 24.7333 46.1602 22.5471C45.92 21.742 45.8026 20.907 45.8118 20.0688C45.8061 19.2509 45.9234 18.4366 46.1602 17.6516C46.7864 15.6099 48.2872 14.0189 50.8403 14.0189C54.6459 14.0189 55.8651 17.0131 55.8651 20.0688C55.8651 23.6185 54.1901 26.0752 50.8403 26.0752ZM52.5004 9.99287C51.152 9.94898 49.8226 10.3124 48.6947 11.0332C47.5669 11.754 46.6957 12.797 46.2009 14.0189H46.1416V0H40.9167V29.6684H44.2443L46.175 26.2773H46.2342C46.8079 27.4281 47.7033 28.3979 48.8175 29.0756C49.9318 29.7534 51.2198 30.1114 52.5337 30.1085C57.8327 30.1806 61.2418 25.9779 61.2418 20.0542C61.2418 14.0225 58.0809 9.99649 52.5337 9.99649" fill="#003149"/>
<path d="M67.7266 3.99414L63.606 6.48334L71.4137 19.9972L63.606 33.5111L67.7266 36.0002L81 19.9972L67.7266 3.99414Z" fill="#00C0FF"/>
</svg>
