<svg width="91" height="38" viewBox="0 0 91 38" fill="none" xmlns="http://www.w3.org/2000/svg">
<path fill-rule="evenodd" clip-rule="evenodd" d="M30.6959 18.9711C30.6959 15.3601 29.3111 14.1063 27.5115 14.1063C25.8688 14.1063 24.3271 15.3601 24.3271 18.9711C24.3271 22.5817 25.8688 23.8358 27.5115 23.8358C29.1714 23.8358 30.6959 22.5817 30.6959 18.9711ZM18.4128 18.9711C18.4128 12.6133 21.7112 8.98828 27.5115 8.98828C33.3119 8.98828 36.61 12.5926 36.61 18.9711C36.61 25.3582 33.3119 28.9538 27.5115 28.9538C21.7112 28.9538 18.4128 25.3912 18.4128 18.9711Z" fill="#213246"/>
<path fill-rule="evenodd" clip-rule="evenodd" d="M55.99 18.9711C55.99 12.553 59.5451 8.98828 64.8181 8.98828C70.0785 8.98828 73.0001 11.6725 73.249 16.5828H67.3634C67.0935 14.5723 66.2637 13.9925 64.8328 13.9925C62.9191 13.9925 61.9042 15.4928 61.9042 18.9711C61.9042 22.3771 62.9944 23.9496 64.8328 23.9496C66.2913 23.9496 67.0935 23.4511 67.3634 21.3593H73.249C73.0389 26.2759 69.7942 28.9538 64.8897 28.9538C59.2367 28.9538 55.99 25.2916 55.99 18.9711Z" fill="#213246"/>
<mask id="mask0_809_10345" style="mask-type:alpha" maskUnits="userSpaceOnUse" x="75" y="9" width="16" height="20">
<path d="M75.0413 9.61401H90.5531V28.3277H75.0413V9.61401Z" fill="white"/>
</mask>
<g mask="url(#mask0_809_10345)">
<path fill-rule="evenodd" clip-rule="evenodd" d="M75.0413 9.61401H80.6565V16.4578H84.9379V9.61401H90.5531V28.3277H84.9379V21.42H80.6565V28.3277H75.0413V9.61401Z" fill="#213246"/>
</g>
<path fill-rule="evenodd" clip-rule="evenodd" d="M38.3059 9.62105H43.8367V21.6286C43.8367 23.1034 44.5987 24.285 46.074 24.285C47.6968 24.285 48.6609 23.2854 48.6609 20.7685V9.61426H54.1992V28.3015H48.6609V26.1067C48.0068 27.6992 46.0855 28.8272 44.0936 28.8272C40.3319 28.8272 38.3059 26.3743 38.3059 22.3053V9.62105Z" fill="#213246"/>
<path fill-rule="evenodd" clip-rule="evenodd" d="M12.1435 9.6145L9.58358 21.8816L6.99297 9.6145H0.762451L6.35421 28.3282H12.7818L18.4136 9.6145H12.1435Z" fill="#213246"/>
<mask id="mask1_809_10345" style="mask-type:alpha" maskUnits="userSpaceOnUse" x="49" y="30" width="31" height="8">
<path d="M49.9758 30.4187H79.8338V37.9999H49.9758V30.4187Z" fill="white"/>
</mask>
<g mask="url(#mask1_809_10345)">
<path fill-rule="evenodd" clip-rule="evenodd" d="M64.9048 33.0757C61.6164 33.0757 59.2964 32.0195 57.1784 30.4187H49.9758C53.2779 35.1207 58.5807 38 64.9048 38C71.2289 38 76.5317 35.1207 79.8338 30.4187H72.6309C70.5132 32.0195 68.1932 33.0757 64.9048 33.0757Z" fill="#3BE0AD"/>
</g>
<path fill-rule="evenodd" clip-rule="evenodd" d="M37.8742 2.92308C35.0022 1.05448 31.547 0 27.7258 0C23.9045 0 20.4673 1.05448 17.6186 2.92308C15.8039 4.11365 14.23 5.63572 12.9497 7.43095H20.2234C22.2937 5.92278 24.5683 4.92407 27.7258 4.92407C30.8832 4.92407 33.1772 5.92278 35.2721 7.43095H42.5903C41.2945 5.63572 39.7039 4.11365 37.8742 2.92308Z" fill="#3BE0AD"/>
</svg>
