<svg width="52" height="25" viewBox="0 0 52 25" fill="none" xmlns="http://www.w3.org/2000/svg">
<path d="M15.2976 11.6193C15.8322 10.379 16.3376 9.20626 16.8424 8.03356C17.2218 7.15338 17.6052 6.27452 17.9759 5.39101C18.0522 5.20927 18.155 5.14825 18.3494 5.15289C18.8687 5.16616 19.3887 5.1708 19.9074 5.15289C20.1396 5.14427 20.2271 5.23713 20.312 5.43811C21.1412 7.39614 21.9776 9.3513 22.8213 11.3036C22.8538 11.3799 22.8936 11.4528 22.9626 11.5915C23.196 11.0389 23.4056 10.5474 23.6126 10.0553C24.2659 8.50052 24.9153 6.9451 25.5786 5.39499C25.6217 5.29351 25.7683 5.1708 25.8684 5.16881C26.8076 5.15223 27.7469 5.15886 28.7259 5.15886C28.3644 6.02446 28.0148 6.86551 27.6646 7.70457C26.4972 10.4771 25.3314 13.2499 24.1671 16.0229C24.0643 16.2696 23.9402 16.3545 23.6796 16.3419C23.2153 16.3201 22.751 16.3187 22.2867 16.3419C22.0134 16.3559 21.8814 16.2637 21.7733 16.0103C20.9335 14.0324 20.0772 12.0624 19.2249 10.0898C19.2037 10.0407 19.1745 9.99558 19.1294 9.91333C18.7314 10.8333 18.3514 11.7228 17.9673 12.6116C17.4599 13.785 16.9558 14.959 16.4344 16.127C16.401 16.1816 16.3556 16.2278 16.3018 16.2623C16.2479 16.2967 16.1869 16.3185 16.1234 16.326C15.5715 16.3464 15.0188 16.3464 14.4651 16.326C14.4016 16.3166 14.3411 16.2927 14.2882 16.2562C14.2353 16.2198 14.1915 16.1718 14.16 16.1158C13.0059 13.3976 11.8591 10.6766 10.7195 7.95264C10.3905 7.1704 10.0613 6.3886 9.7319 5.60725C9.67353 5.46796 9.6198 5.32601 9.55347 5.15886C10.5371 5.15886 11.487 5.15289 12.4361 5.16947C12.5263 5.16947 12.655 5.29815 12.6968 5.39632C13.4251 7.12088 14.1474 8.84941 14.8638 10.5819C14.9984 10.905 15.1344 11.23 15.2976 11.6193Z" fill="white"/>
<path d="M33.9213 5.92186C34.8114 5.26283 35.8928 4.91338 37.0003 4.92692C38.197 4.91929 39.3627 5.30684 40.3166 6.02942C41.2706 6.752 41.9594 7.76922 42.2761 8.92325C42.8598 11.0458 42.5354 13.0197 41.0742 14.7171C40.0421 15.9163 38.6791 16.4861 37.1104 16.5657C35.8986 16.6267 34.8081 16.2772 33.8125 15.4925V16.3077H30.9033V0H33.9213V5.92186ZM33.9339 10.7473C33.9339 11.2335 33.9226 11.719 33.9405 12.2065C33.9458 12.3472 33.9969 12.5243 34.0924 12.6165C34.3677 12.8818 34.6502 13.1584 34.9773 13.3461C36.3768 14.1593 38.1226 13.7971 38.9815 12.5428C39.8889 11.2162 39.6163 9.30332 38.3773 8.29777C37.2232 7.36186 35.2167 7.60596 34.1528 8.80386C34.0762 8.88016 34.0166 8.97177 33.9778 9.0727C33.9391 9.17362 33.9221 9.28159 33.9279 9.38954C33.9491 9.84191 33.9339 10.2949 33.9339 10.7473Z" fill="white"/>
<path d="M0.12793 25.0001V22.1147H51.8723V25.0001H0.12793Z" fill="white"/>
</svg>
