<svg width="198" height="17" viewBox="0 0 198 17" fill="none" xmlns="http://www.w3.org/2000/svg">
<path d="M72.7539 8.25566V5.30811H111.416V8.25566H72.7539Z" fill="white"/>
<path d="M6.35837 11.9099C6.90603 10.6393 7.42379 9.43799 7.94087 8.23668C8.32953 7.33501 8.72226 6.43471 9.10209 5.52965C9.18023 5.34347 9.28555 5.28096 9.48464 5.28572C10.0167 5.29931 10.5494 5.30406 11.0807 5.28572C11.3185 5.27689 11.4082 5.37201 11.4952 5.57789C12.3445 7.5837 13.2014 9.58657 14.0657 11.5865C14.099 11.6646 14.1397 11.7394 14.2104 11.8814C14.4496 11.3154 14.6643 10.8119 14.8763 10.3077C15.5456 8.71503 16.2108 7.12166 16.8902 5.53373C16.9344 5.42977 17.0846 5.30407 17.1872 5.30203C18.1493 5.28504 19.1114 5.29183 20.1143 5.29183C19.744 6.17855 19.3859 7.04012 19.0272 7.89966C17.8313 10.7399 16.637 13.5803 15.4443 16.421C15.339 16.6737 15.2119 16.7607 14.9449 16.7478C14.4693 16.7254 13.9936 16.724 13.518 16.7478C13.2381 16.762 13.1028 16.6676 12.9921 16.408C12.1319 14.3818 11.2547 12.3638 10.3815 10.3431C10.3598 10.2928 10.3299 10.2466 10.2837 10.1623C9.87601 11.1047 9.48668 12.0159 9.09326 12.9264C8.57346 14.1284 8.05706 15.3311 7.52299 16.5276C7.48873 16.5835 7.44226 16.6308 7.38706 16.6661C7.33187 16.7015 7.26939 16.7238 7.20432 16.7315C6.639 16.7523 6.07277 16.7523 5.50564 16.7315C5.44056 16.7218 5.37857 16.6973 5.3244 16.66C5.27022 16.6227 5.2253 16.5734 5.19307 16.5161C4.01078 13.7316 2.83597 10.9442 1.66863 8.15378C1.33162 7.35246 0.994377 6.55158 0.656904 5.75116C0.59711 5.60847 0.542069 5.46306 0.474121 5.29183C1.48178 5.29183 2.45479 5.28572 3.42712 5.30271C3.51952 5.30271 3.65135 5.43452 3.69415 5.53509C4.44022 7.30172 5.18017 9.07243 5.914 10.8472C6.05193 11.1781 6.19122 11.5111 6.35837 11.9099Z" fill="white"/>
<path d="M120.525 6.07319C121.437 5.39807 122.545 5.0401 123.679 5.05398C124.905 5.04616 126.099 5.44316 127.077 6.18337C128.054 6.92359 128.759 7.96563 129.084 9.14781C129.682 11.3221 129.349 13.3442 127.853 15.083C126.795 16.3115 125.399 16.8952 123.792 16.9767C122.551 17.0392 121.434 16.6811 120.414 15.8773V16.7124H117.434V0.00683594H120.525V6.07319ZM120.538 11.0164C120.538 11.5144 120.527 12.0118 120.545 12.5112C120.55 12.6553 120.603 12.8367 120.7 12.9311C120.982 13.2029 121.272 13.4863 121.607 13.6786C123.041 14.5116 124.829 14.1406 125.709 12.8557C126.638 11.4968 126.359 9.53715 125.09 8.50707C123.908 7.54833 121.852 7.79837 120.762 9.02551C120.684 9.10367 120.623 9.19752 120.583 9.3009C120.543 9.40429 120.526 9.5149 120.532 9.62548C120.554 10.0889 120.538 10.553 120.538 11.0164Z" fill="white"/>
<path d="M55.7799 0H58.8675V8.93849C59.479 8.36977 60.0103 7.87511 60.5403 7.3757C61.215 6.74039 61.883 6.09829 62.5638 5.46977C62.6672 5.37122 62.8007 5.31041 62.9429 5.29719C64.2897 5.28563 65.6364 5.29107 66.9838 5.29243C67.0021 5.29243 67.0212 5.30806 67.083 5.33592L61.5113 10.4639L67.7869 16.7395H67.403C66.271 16.7395 65.139 16.7314 64.0056 16.7457C63.8892 16.7507 63.773 16.7296 63.6658 16.6839C63.5586 16.6381 63.4629 16.5689 63.386 16.4813C62.0003 15.0522 60.6101 13.6278 59.2153 12.2081C59.1297 12.1212 59.0387 12.0403 58.8926 11.901V16.7124H55.7786L55.7799 0Z" fill="white"/>
<path d="M189.268 16.7204H186.189V0.0114746H189.247V6.04181C189.65 5.82982 189.994 5.62326 190.353 5.46358C192.675 4.43961 195.517 5.35486 196.799 7.53802C197.323 8.43017 197.497 9.42356 197.512 10.4339C197.539 12.4832 197.519 14.5332 197.519 16.5825C197.515 16.6258 197.509 16.6689 197.502 16.7116H194.428V16.3087C194.428 14.4293 194.432 12.5491 194.424 10.669C194.42 10.3529 194.39 10.0376 194.332 9.72661C194.091 8.35678 192.917 7.83359 191.818 7.92124C190.963 7.98919 190.241 8.36494 189.611 8.93502C189.494 9.03117 189.401 9.1529 189.339 9.29077C189.277 9.42864 189.248 9.57894 189.253 9.73C189.27 11.9152 189.262 14.1011 189.262 16.2869L189.268 16.7204Z" fill="white"/>
<path d="M36.4871 11.0441C36.5102 14.345 33.8249 17.0473 30.2631 16.98C27.0369 16.9189 24.3156 14.519 24.3021 11.0455C24.2885 7.57202 27.0424 5.03486 30.4486 5.04913C33.8548 5.0634 36.4871 7.66851 36.4871 11.0441ZM27.4168 11.0258C27.4168 12.7985 28.6935 14.1262 30.3949 14.1235C32.0963 14.1208 33.3955 12.7877 33.3948 11.0312C33.3948 9.2612 32.082 7.89885 30.3847 7.90564C28.6874 7.91244 27.4168 9.251 27.4168 11.0258Z" fill="white"/>
<path d="M137.745 11.8132C137.907 12.9683 138.498 13.7776 139.535 14.2145C140.698 14.7057 142.129 14.6079 143.658 13.1953L145.425 14.9667C145.212 15.1671 144.977 15.4199 144.71 15.6346C142.577 17.3516 139.234 17.444 137.02 15.833C135.56 14.771 134.863 13.2775 134.749 11.5136C134.638 9.79382 135.079 8.22899 136.203 6.87887C138.019 4.69844 141.632 4.41442 143.731 6.31627C145.266 7.70715 145.838 9.47039 145.689 11.5061C145.67 11.7684 145.578 11.8187 145.339 11.818C142.939 11.8105 140.538 11.8132 138.137 11.8132H137.745ZM142.53 9.51388C142.375 8.31596 141.334 7.47953 140.11 7.57058C138.885 7.66163 137.923 8.72569 137.935 9.51388H142.53Z" fill="white"/>
<path d="M151.806 5.30669H154.773V6.12206C155.151 5.90938 155.489 5.69467 155.846 5.52276C158.693 4.15838 162.726 5.77213 163.061 9.64378C163.164 10.8464 163.129 12.0614 163.138 13.2708C163.15 14.413 163.138 15.5545 163.138 16.7171H160.046V16.3217C160.046 14.3974 160.053 12.4724 160.046 10.5461C160.046 9.89654 159.958 9.25512 159.526 8.72649C158.996 8.07759 158.274 7.86355 157.47 7.91655C156.601 7.97363 155.867 8.35278 155.232 8.93576C155.116 9.03276 155.024 9.15483 154.963 9.29271C154.902 9.43058 154.873 9.58062 154.878 9.73143C154.895 11.9159 154.887 14.1011 154.887 16.2863V16.711H151.807L151.806 5.30669Z" fill="white"/>
<path d="M177.978 12.6152L180.342 14.3866C179.55 15.469 178.571 16.2892 177.293 16.6642C175.391 17.2241 173.528 17.1215 171.802 16.0717C170.14 15.0607 169.193 13.5522 169.027 11.6144C168.729 8.15516 171.094 5.39106 174.59 5.08733C176.645 4.90863 178.389 5.57723 179.789 7.10741C179.857 7.18147 179.913 7.26641 179.987 7.36357L177.799 9.28581C177.074 8.40249 176.184 7.8759 175.039 7.91327C174.625 7.9224 174.217 8.01838 173.843 8.19501C173.468 8.37164 173.135 8.62497 172.864 8.9386C171.755 10.1834 171.861 12.2728 173.084 13.3463C174.528 14.6163 176.432 14.3397 177.978 12.6152Z" fill="white"/>
<path d="M45.5552 6.3593C46.8462 5.1512 48.2901 4.88756 49.914 5.15187C49.7938 6.12896 49.6783 7.06324 49.5743 7.92141C48.9281 7.95131 48.3254 7.91666 47.7485 8.0213C46.9536 8.16603 46.3284 8.64845 45.8555 9.29735C45.7371 9.47143 45.6725 9.67658 45.67 9.88714C45.6571 12.0384 45.6619 14.1889 45.6619 16.3421V16.724H42.5947V5.30883H45.5572L45.5552 6.3593Z" fill="white"/>
</svg>
